<svg id="Group_750" data-name="Group 750" xmlns="http://www.w3.org/2000/svg" width="50.192" height="48.59" viewBox="0 0 50.192 48.59">
  <g id="Group_425" data-name="Group 425" transform="translate(0 46.637) rotate(-90)">
    <path id="Path_997" data-name="Path 997" d="M7.375,9.21c-2.034,0-4.067-.021-6.1.009C.36,9.233-.082,8.922.013,8.185c.319-2.477.669-4.951,1-7.427.064-.48.5-.519.922-.551A74.518,74.518,0,0,1,12.98.2c.509.037.875.167.941.678.3,2.361.64,4.719.972,7.078.138.982-.4,1.3-1.559,1.267C11.349,9.168,9.361,9.21,7.375,9.21Z" transform="translate(1.996 3.399)"/>
    <path id="Path_998" data-name="Path 998" d="M9.32,0a44.837,44.837,0,0,1,7.765.688c1.233.245,2.032,1.072,1.75,1.9-.347,1.017-1.322.928-2.3.8A54.734,54.734,0,0,0,2.309,3.4c-.98.13-1.955.182-2.258-.855C-.2,1.667.516.941,1.723.688A43.482,43.482,0,0,1,9.32,0Z"/>
    <path id="Path_999" data-name="Path 999" d="M2.314,5.93c.046.442.095.933-.592,1.023S.9,6.582.826,6.13C.564,4.435.293,2.742.034,1.047-.033.61-.067.109.605.014c.73-.1.775.409.847.84Q1.88,3.392,2.314,5.93Z" transform="translate(16.541 4.141)"/>
    <path id="Path_1000" data-name="Path 1000" d="M.029,5.847C.323,4.122.617,2.43.9.736.958.358,1.108-.018,1.609,0a.68.68,0,0,1,.7.848Q1.9,3.624,1.456,6.4a.663.663,0,0,1-.869.567C-.213,6.807.041,6.26.029,5.847Z" transform="translate(0.026 4.264)"/>
  </g>
  <g id="Group_423" data-name="Group 423" transform="translate(50.192 27.745) rotate(90)">
    <path id="Path_997-2" data-name="Path 997" d="M7.375,9.21c-2.034,0-4.067-.021-6.1.009C.36,9.233-.082,8.922.013,8.185c.319-2.477.669-4.951,1-7.427.064-.48.5-.519.922-.551A74.518,74.518,0,0,1,12.98.2c.509.037.875.167.941.678.3,2.361.64,4.719.972,7.078.138.982-.4,1.3-1.559,1.267C11.349,9.168,9.361,9.21,7.375,9.21Z" transform="translate(1.996 3.399)"/>
    <path id="Path_998-2" data-name="Path 998" d="M9.32,0a44.837,44.837,0,0,1,7.765.688c1.233.245,2.032,1.072,1.75,1.9-.347,1.017-1.322.928-2.3.8A54.734,54.734,0,0,0,2.309,3.4c-.98.13-1.955.182-2.258-.855C-.2,1.667.516.941,1.723.688A43.482,43.482,0,0,1,9.32,0Z" transform="translate(0)"/>
    <path id="Path_999-2" data-name="Path 999" d="M2.314,5.93c.046.442.095.933-.592,1.023S.9,6.582.826,6.13C.564,4.435.293,2.742.034,1.047-.033.61-.067.109.605.014c.73-.1.775.409.847.84Q1.88,3.392,2.314,5.93Z" transform="translate(16.541 4.141)"/>
    <path id="Path_1000-2" data-name="Path 1000" d="M.029,5.847C.323,4.122.617,2.43.9.736.958.358,1.108-.018,1.609,0a.68.68,0,0,1,.7.848Q1.9,3.624,1.456,6.4a.663.663,0,0,1-.869.567C-.213,6.807.041,6.26.029,5.847Z" transform="translate(0.026 4.264)"/>
  </g>
  <g id="Group_694" data-name="Group 694">
    <g id="Group_426" data-name="Group 426" transform="translate(0 22.304) rotate(-90)">
      <path id="Path_997-3" data-name="Path 997" d="M7.375,9.21c-2.034,0-4.067-.021-6.1.009C.36,9.233-.082,8.922.013,8.185c.319-2.477.669-4.951,1-7.427.064-.48.5-.519.922-.551A74.518,74.518,0,0,1,12.98.2c.509.037.875.167.941.678.3,2.361.64,4.719.972,7.078.138.982-.4,1.3-1.559,1.267C11.349,9.168,9.361,9.21,7.375,9.21Z" transform="translate(1.996 3.399)"/>
      <path id="Path_998-3" data-name="Path 998" d="M9.32,0a44.837,44.837,0,0,1,7.765.688c1.233.245,2.032,1.072,1.75,1.9-.347,1.017-1.322.928-2.3.8A54.734,54.734,0,0,0,2.309,3.4c-.98.13-1.955.182-2.258-.855C-.2,1.667.516.941,1.723.688A43.482,43.482,0,0,1,9.32,0Z"/>
      <path id="Path_999-3" data-name="Path 999" d="M2.314,5.93c.046.442.095.933-.592,1.023S.9,6.582.826,6.13C.564,4.435.293,2.742.034,1.047-.033.61-.067.109.605.014c.73-.1.775.409.847.84Q1.88,3.392,2.314,5.93Z" transform="translate(16.541 4.141)"/>
      <path id="Path_1000-3" data-name="Path 1000" d="M.029,5.847C.323,4.122.617,2.43.9.736.958.358,1.108-.018,1.609,0a.68.68,0,0,1,.7.848Q1.9,3.624,1.456,6.4a.663.663,0,0,1-.869.567C-.213,6.807.041,6.26.029,5.847Z" transform="translate(0.026 4.264)"/>
    </g>
    <g id="Group_424" data-name="Group 424" transform="translate(50.192 2.003) rotate(90)">
      <path id="Path_997-4" data-name="Path 997" d="M7.375,9.21c-2.034,0-4.067-.021-6.1.009C.36,9.233-.082,8.922.013,8.185c.319-2.477.669-4.951,1-7.427.064-.48.5-.519.922-.551A74.518,74.518,0,0,1,12.98.2c.509.037.875.167.941.678.3,2.361.64,4.719.972,7.078.138.982-.4,1.3-1.559,1.267C11.349,9.168,9.361,9.21,7.375,9.21Z" transform="translate(1.996 3.399)"/>
      <path id="Path_998-4" data-name="Path 998" d="M9.32,0a44.837,44.837,0,0,1,7.765.688c1.233.245,2.032,1.072,1.75,1.9-.347,1.017-1.322.928-2.3.8A54.734,54.734,0,0,0,2.309,3.4c-.98.13-1.955.182-2.258-.855C-.2,1.667.516.941,1.723.688A43.482,43.482,0,0,1,9.32,0Z"/>
      <path id="Path_999-4" data-name="Path 999" d="M2.314,5.93c.046.442.095.933-.592,1.023S.9,6.582.826,6.13C.564,4.435.293,2.742.034,1.047-.033.61-.067.109.605.014c.73-.1.775.409.847.84Q1.88,3.392,2.314,5.93Z" transform="translate(16.541 4.141)"/>
      <path id="Path_1000-4" data-name="Path 1000" d="M.029,5.847C.323,4.122.617,2.43.9.736.958.358,1.108-.018,1.609,0a.68.68,0,0,1,.7.848Q1.9,3.624,1.456,6.4a.663.663,0,0,1-.869.567C-.213,6.807.041,6.26.029,5.847Z" transform="translate(0.026 4.264)"/>
    </g>
    <rect id="Rectangle_223" data-name="Rectangle 223" width="22.085" height="48.59" rx="11.043" transform="translate(13.905)"/>
  </g>
</svg>
