<svg xmlns="http://www.w3.org/2000/svg" width="415.933" height="153.126" viewBox="0 0 415.933 153.126">
  <g id="Group_264" data-name="Group 264" transform="translate(-218.339 -254.47)">
    <path id="Path_427" data-name="Path 427" d="M634.271,324.242q0,.547,0,1.1a82.311,82.311,0,0,1-2.532,19.115q-.354,1.421-.755,2.83c-4.272,15.048-12.286,28.767-21.53,36.717l-.292.248-47.708-.046-50.3-.049L231.736,406.821V383.889a92.244,92.244,0,0,1-6.676-12.762c-.125-.287-.25-.577-.373-.873h0q-.743-1.754-1.465-3.668-.5-1.315-.967-2.7-.071-.208-.141-.42-.167-.5-.329-1c-.037-.111-.072-.222-.108-.336h0c-.519-1.636-1-3.327-1.427-5.061q-.471-1.9-.844-3.865a55.757,55.757,0,0,1-.963-13.976c.049-.735.114-1.471.2-2.2a36.976,36.976,0,0,1,7.426-18.674,42.831,42.831,0,0,1,11.654-10.251,45.537,45.537,0,0,1,16.537-6.077c15.293-2.708,31.281-.21,53.878-16.483q2.262-1.629,4.616-3.517a281.554,281.554,0,0,1,30.018-21.246l.354-.214c28.352-16.926,49.327,6.712,70.769,7.657,37.038,1.632,37.9-21.264,106.4,4.591l.008,0q2.066.78,4.218,1.62a70.041,70.041,0,0,0,15.368,4.037q1.527.225,3.052.368a49.449,49.449,0,0,0,13.581-.552c27.593-5.062,46.483-1.7,58.728,6.448q.591.393,1.162.8a39.965,39.965,0,0,1,6.337,5.623,42.3,42.3,0,0,1,9,16,51.846,51.846,0,0,1,1.374,5.408q.447,2.251.717,4.566a65.1,65.1,0,0,1,.425,6.572C634.269,323.883,634.27,324.062,634.271,324.242Z" transform="translate(0 0)" fill="#5a5a5a"/>
    <path id="Path_428" data-name="Path 428" d="M559.515,768.891H525.439l-.357-2.6a.59.59,0,0,0-.048-.164c.221-4,1.123-7.274,1.281-9.6a2.5,2.5,0,0,0-.211-2.4l.282.042c-1.42-1.252-2.121-9.734-2.177-10.463a3.111,3.111,0,0,0-.05-.359c-.126-.8-.515-2.712-1.441-3.471l-3.9.277s-1.5.717-2.617,4.018h0a2.49,2.49,0,0,0-.528,1.245,2.038,2.038,0,0,0,.755,2.052,1.726,1.726,0,0,1-.014-.174c.128,1.7.557,3.8,1.337,3.885,0,0,.325.014.8-.018a6.738,6.738,0,0,1-.234,1.9c-.085.014-.17.03-.256.046l0,0a1.268,1.268,0,0,0-.156.033l-.014,0a1.22,1.22,0,0,0-.124.033c-.239.06-.5.163-.728.24,0,0-2.513.686-6.159,6.672h-.541c-.07-.03-.14-.062-.208-.1a1.936,1.936,0,0,0-.2-.085l.026-.6.074-1.7.036-.812h.113l-.072-.548h-2.552l-.105.548h.113l.051.812.106,1.7.021.334a.786.786,0,0,0-.41.152.362.362,0,0,0-.092.295h-1.224l.034-.782.074-1.7.036-.812h.113l-.072-.548h-2.553l-.105.548h.113l.05.812.106,1.7.048.763-.333-.047a5.051,5.051,0,0,1-.716-.284c-.62-.31-2.272-.516-2.623-.186s.372,1.673,1.88,1.715a9.551,9.551,0,0,1,1.218.1,36.644,36.644,0,0,0,3.981,1.558c.729.231,1.49.447,2.217.61a11.371,11.371,0,0,0,1.885.283,10.73,10.73,0,0,0,1.925-1.066c.368.143.763.292,1.174.437l-.187,2.182c-.069.493-.1,1.93-.109,3.53h-32.18c-.19-1.342-.495-2.99-.557-3.669a25.127,25.127,0,0,1,.022-3.615c1-.334,1.957-.709,2.682-1.009a11.126,11.126,0,0,0,2.162,1.229q.109-.005.222-.014h.009l.219-.021.029,0,.2-.025.058-.008.18-.026.09-.015.152-.026.12-.022.125-.023.147-.03.1-.021.169-.037.059-.013.013,0q.257-.058.519-.124l.03-.008q.259-.066.521-.138l.038-.01q.259-.072.517-.149l.039-.011c.181-.054.361-.11.539-.166a36.587,36.587,0,0,0,3.981-1.558,9.6,9.6,0,0,1,1.218-.1c1.508-.041,2.231-1.384,1.88-1.715s-2-.124-2.623.186a5.051,5.051,0,0,1-.717.284c-2.154.312-3.819.4-4.919.5a.5.5,0,0,0-.042-.523c-.323-.3-1.681-.182-2.472.07-3.849-5.272-6.536-6.95-6.536-6.95a.948.948,0,0,0-.141-.059c1.773-1.275-.649-1.324-.125-5.6.255-2.081-.4-5.412-4.549-4.88s-5.464,4.615-4.626,6.43-1.206,2.253-1.848,4.205c-.551,1.677-.743,3.759-1.635,4.694-2.47,2.588,1.34,6.371,4.618,6.768a10.179,10.179,0,0,1-.032,1.034,3.748,3.748,0,0,1-.061.415c-.23,1.177-1,3.2-1.486,4.755h-2.325a1.509,1.509,0,0,0-1.505,1.505V804.1a1.509,1.509,0,0,0,1.505,1.505h91.553a1.51,1.51,0,0,0,1.505-1.505V770.4A1.51,1.51,0,0,0,559.515,768.891Zm-77.876-9.854q.023-.317.042-.618.267.294.534.559Z" transform="translate(-215.508 -421.605)" fill="#f9a0ad" opacity="0.4"/>
    <path id="Path_429" data-name="Path 429" d="M1368.2,768.891h-24.137l-.357-2.6a.584.584,0,0,0-.048-.164c.221-4,1.123-7.274,1.281-9.6a2.5,2.5,0,0,0-.211-2.4l.282.042c-1.42-1.252-2.121-9.734-2.177-10.463a3.073,3.073,0,0,0-.05-.359c-.126-.8-.515-2.712-1.441-3.471l-3.9.277s-1.5.717-2.617,4.018h0a2.492,2.492,0,0,0-.528,1.245,2.039,2.039,0,0,0,.755,2.052c-.008-.059-.012-.116-.014-.173.129,1.7.557,3.8,1.337,3.885,0,0,.325.014.8-.018a6.747,6.747,0,0,1-.234,1.9c-.085.014-.17.03-.255.046l0,0a1.264,1.264,0,0,0-.156.033l-.014,0a1.2,1.2,0,0,0-.124.033c-.239.06-.5.163-.728.24,0,0-2.513.686-6.159,6.672h-.541c-.07-.03-.14-.062-.208-.1a1.935,1.935,0,0,0-.2-.085l.026-.6.074-1.7.035-.812h.113l-.072-.548h-2.552l-.105.548h.113l.05.812.106,1.7.021.334a.786.786,0,0,0-.41.152.36.36,0,0,0-.092.295h-1.224l.034-.782.074-1.7.036-.812h.113l-.072-.548h-2.552l-.105.548h.113l.047.748a3.041,3.041,0,0,0-.649.212,5.066,5.066,0,0,1-.716.284c-2.154.312-3.819.4-4.919.5a.5.5,0,0,0-.042-.523c-.324-.3-1.681-.182-2.472.07-3.849-5.272-6.536-6.95-6.536-6.95a.949.949,0,0,0-.141-.059c1.773-1.275-.649-1.324-.125-5.6.255-2.081-.4-5.412-4.55-4.88s-5.464,4.615-4.626,6.43-1.206,2.253-1.848,4.205c-.551,1.677-.743,3.759-1.635,4.694-2.47,2.588,1.34,6.371,4.617,6.768a10.2,10.2,0,0,1-.032,1.034,3.75,3.75,0,0,1-.061.415c-.229,1.177-1,3.2-1.486,4.755h-13.943a1.456,1.456,0,0,0-1.452,1.452v33.815a1.456,1.456,0,0,0,1.452,1.451H1368.2a1.456,1.456,0,0,0,1.452-1.451V770.343A1.456,1.456,0,0,0,1368.2,768.891Zm-59.741-9.854q.023-.317.042-.618.267.294.534.559Zm.353,9.854c-.19-1.342-.495-2.99-.557-3.669a25.074,25.074,0,0,1,.021-3.615c1-.334,1.957-.709,2.682-1.009a11.126,11.126,0,0,0,2.162,1.229q.109-.005.222-.014h.009l.219-.021.029,0,.2-.025.058-.008.18-.026.089-.015.152-.026.12-.022.124-.023.147-.03.1-.021.17-.037.059-.013.013,0q.257-.058.519-.124l.03-.008q.259-.066.521-.138l.038-.01q.259-.072.517-.149l.038-.011q.272-.081.539-.166c.592-.187,1.174-.4,1.7-.6a2.166,2.166,0,0,0,1.766.923,9.545,9.545,0,0,1,1.218.1,36.662,36.662,0,0,0,3.981,1.558c.728.231,1.49.447,2.217.61a11.371,11.371,0,0,0,1.885.283,10.735,10.735,0,0,0,1.925-1.066c.367.143.763.292,1.174.437l-.187,2.182c-.069.493-.1,1.93-.109,3.53Zm13.61-9.616h.014l0,.023.048.763-.333-.047a5.046,5.046,0,0,1-.717-.284,2.876,2.876,0,0,0-.578-.2c.188-.084.309-.14.347-.158A9.6,9.6,0,0,1,1322.422,759.276Z" transform="translate(-923.62 -421.605)" fill="#f9a0ad" opacity="0.4"/>
    <g id="Group_265" data-name="Group 265" transform="translate(576.021 317.131)">
      <path id="Path_430" data-name="Path 430" d="M3002.378,733.209c-.006-.159-.128-1.867-2.73-1.956,0,0,1.28.152,1.5.715,0,0-.872-.7-1.581-.472s-1.126,1.467-1.13,1.875.39,1.727.84,1.839a1.369,1.369,0,0,0,.545,0,6.192,6.192,0,0,0-.349.624c-1.038,2.131.033,4.214.911,3.984.564-.148.723.814.723.814l5.476-4.433S3004.573,732.037,3002.378,733.209Z" transform="translate(-2990.747 -731.253)" fill="#2c3a64"/>
      <path id="Path_431" data-name="Path 431" d="M3128.222,931.884s1.594-.062,1.859.2a2.073,2.073,0,0,1-.365,2.027c-.5.432-1.861-1.2-1.861-1.2Z" transform="translate(-3103.156 -905.511)" fill="#ed985f"/>
      <path id="Path_432" data-name="Path 432" d="M3037.255,840.284a3.793,3.793,0,0,0-1.768,3.611c.119,2.641,3.7,7.268,5.5,8.367,1.424.87,6.844,1.108,6.844,1.108l.158-1.068s-5.064-2.057-5.776-2.848C3040.685,847.756,3038.666,839.7,3037.255,840.284Z" transform="translate(-3022.923 -825.928)" fill="#ed985f"/>
      <path id="Path_433" data-name="Path 433" d="M2960.361,829.762c-.026.072-.057.144-.09.216-.927,1.994-3.788,5.316-3.918,7.6a10.444,10.444,0,0,0,.377,3.076c1.59,6.391-10.972.946-10.262-.709,1.412-3.289,3.384-7.984,3.384-7.984,0-.024-.018-3.328-.006-4.628V827.3c0-.06,0-.118,0-.172v-.064c.006-.4,0-.688-.009-.764.359-1.307,1.049-3.491,1.049-3.491a6.868,6.868,0,0,1,2.726-.161c.062,0,.447.035.752.069a14.611,14.611,0,0,1,3.842,1.158s.578.241.691.289c.255.108.48.212.674.309a5.189,5.189,0,0,1,1.094.674C2959.725,825.758,2961.091,827.826,2960.361,829.762Z" transform="translate(-2945.582 -810.573)" fill="#739cf3"/>
      <path id="Path_434" data-name="Path 434" d="M2950.826,940.436l-1.228.323,0-.013c-2.126.565-7.809-1.578-7.809-1.578s-2.06,1.811-1.79,6.152c.132,2.119-.384,2.394.239,2.294a73.288,73.288,0,0,1,8.129,0l.074-.313c.168-.019.311-.037.4-.053.318-.053.627-.094.919-.124a16.083,16.083,0,0,1,1.958-.082.18.18,0,0,0,.182-.2C2951.4,941.552,2950.826,940.436,2950.826,940.436Z" transform="translate(-2939.922 -911.843)" fill="#35488b"/>
      <path id="Path_435" data-name="Path 435" d="M3010.79,801.766a3.435,3.435,0,0,0-.182,1.432,1.926,1.926,0,0,1-1.318.7c-1.249.122-2.523-1.859-2.523-1.859a5.609,5.609,0,0,0,1.716-3.267l.157.074,2.639,1.24S3011,800.943,3010.79,801.766Z" transform="translate(-2997.982 -789.898)" fill="#ffb27d"/>
      <path id="Path_436" data-name="Path 436" d="M2954.144,828.88c-.006-.065-.165-.158-.426-.267.076-.7.172-1.943.2-3.893-.194-.1-.419-.2-.674-.309a13.67,13.67,0,0,1-.341,3.906c-1.023-.335-2.46-.723-3.443-.976a41.687,41.687,0,0,0-1.053-4.412l-.749-.067a14.74,14.74,0,0,1,.9,4.254l-.167-.039c-.486-.1-.692,1.931-.733,2.046-.733,2.046-2.616,1.8-3.256,1.873s-4.439,7.908-4.476,9.3,9.008,2.22,11.247,2.088S2954.179,829.262,2954.144,828.88Z" transform="translate(-2939.922 -810.822)" fill="#2c3a64"/>
      <path id="Path_437" data-name="Path 437" d="M3023.656,800.572s-.281.858-.487,1.68a3.393,3.393,0,0,1-2.151-2.92Z" transform="translate(-3010.36 -790.385)" fill="#ed985f"/>
      <path id="Path_438" data-name="Path 438" d="M3022.538,771.334s-3.689-.854-3.122-3.143.472-3.941,2.852-3.493,2.619,1.435,2.615,2.245S3023.513,771.5,3022.538,771.334Z" transform="translate(-3008.917 -760.238)" fill="#ffb27d"/>
      <path id="Path_439" data-name="Path 439" d="M3018.962,762.886c-.4-.83-.863-.786-1.155-.638a2.646,2.646,0,0,0-3.434-.294,4.5,4.5,0,0,1-2.073,2.227,3.132,3.132,0,0,0,2.209.568,2.7,2.7,0,0,0,1.465-.552,8.841,8.841,0,0,1-1.924,1.435c2.056-.394,3.435-2.774,3.576-3.027a2.959,2.959,0,0,1,.535,1.267c.038.628-.178,1.849.182,1.895C3018.345,765.767,3019.558,764.131,3018.962,762.886Z" transform="translate(-3002.789 -757.481)" fill="#2c3a64"/>
      <path id="Path_440" data-name="Path 440" d="M2983.953,840l-.309,1.129s-.473-.083-1.2-.229l-.014,0-.076-.016c-.458-.093-1.009-.209-1.6-.345a20.954,20.954,0,0,1-5.3-1.754c-1.994-1.264-4.818-8.352-4.952-11.31-.007-.157-.01-.307-.007-.448.021-2.549,1.289-2.9,1.289-2.9.511-.211,1.1.673,1.712,2.042,1.281,2.872,2.643,7.879,3.509,9.379.365.631,2.421,1.91,4.2,2.936.624.358,1.214.687,1.687.946C2983.528,839.775,2983.953,840,2983.953,840Z" transform="translate(-2966.471 -811.891)" fill="#ffb27d"/>
      <path id="Path_441" data-name="Path 441" d="M2973.492,826.167a3.311,3.311,0,0,0-3,.856c.021-2.549,1.29-2.9,1.29-2.9C2972.29,823.915,2972.882,824.8,2973.492,826.167Z" transform="translate(-2966.472 -811.893)" fill="#739cf3"/>
      <path id="Path_442" data-name="Path 442" d="M3050.771,842.131s.888,1.549,1.021,1.948a1.851,1.851,0,0,0-1.617.842S3050.215,842.353,3050.771,842.131Z" transform="translate(-3035.685 -827.559)" fill="#739cf3"/>
      <g id="Group_264-2" data-name="Group 264" transform="translate(17.058 23.654)">
        <path id="Path_443" data-name="Path 443" d="M3075,935.174a5.29,5.29,0,0,0,5.289-5.289h-10.579A5.289,5.289,0,0,0,3075,935.174Z" transform="translate(-3069.713 -927.434)" fill="#b84c42"/>
        <path id="Path_444" data-name="Path 444" d="M3078.37,934.626a4.724,4.724,0,0,1-5.632-4.632h1.822A4.721,4.721,0,0,0,3078.37,934.626Z" transform="translate(-3072.34 -927.529)" fill="#d66c67"/>
        <path id="Path_445" data-name="Path 445" d="M3083.34,913.084s-1.316-1.974-1.9-1.84,1.032,1.017,1.615,1.75Z" transform="translate(-3079.79 -911.238)" fill="#d8dfeb"/>
        <path id="Path_446" data-name="Path 446" d="M3082.256,920.515h-9.875a2.468,2.468,0,0,1,1.837-.56,3.779,3.779,0,0,0,1.541-.508,3.035,3.035,0,0,1,3.036.119,4.134,4.134,0,0,0,2.408.6A1.9,1.9,0,0,1,3082.256,920.515Z" transform="translate(-3072.03 -918.064)" fill="#f0d170"/>
      </g>
      <path id="Path_447" data-name="Path 447" d="M3065.979,942.359c-.564.233-1.362,1.063-2.625.565a18.35,18.35,0,0,0-2.531-.76l-.014,0-.076-.015h0l.5-1.462.043.011a8.848,8.848,0,0,0,2.781.255c.864-.2,2.325.848,2.325.848S3066.544,942.126,3065.979,942.359Z" transform="translate(-3044.853 -913.156)" fill="#ffb27d"/>
      <path id="Path_448" data-name="Path 448" d="M3055.427,936.179c-.565.233-1.363,1.063-2.625.565a18.34,18.34,0,0,0-2.531-.76l-.014,0-.076-.015c-.458-.093-1.009-.209-1.6-.345a3.174,3.174,0,0,0,.451-2.053c.624.358,1.213.687,1.687.946a8.846,8.846,0,0,0,2.781.255c.864-.2,2.325.848,2.325.848S3055.991,935.946,3055.427,936.179Z" transform="translate(-3034.3 -906.976)" fill="#739cf3"/>
    </g>
    <path id="Path_449" data-name="Path 449" d="M2805.8,960.7a1.408,1.408,0,0,0-1.351,1.451v33.815a1.407,1.407,0,0,0,1.351,1.451l50.167,23.592c2.492-2.142,4.611-28.3,6.872-31.188q1.353-1.725,2.632-3.6.274-.4.542-.806c1.419-2.141,2.766-4.41,4.026-6.786q.55-1.036,1.077-2.1,1.388-2.8,2.607-5.756a.339.339,0,0,0,.021-.053q.872-2.114,1.645-4.3,1-2.817,1.826-5.721Z" transform="translate(-2246.233 -613.419)" fill="gold"/>
    <g id="Group_269" data-name="Group 269" transform="translate(491.225 318.263)">
      <path id="Path_450" data-name="Path 450" d="M2454.719,754.3s.243-.5,1.462-.362a1.922,1.922,0,0,1,1.618,1.961,52.277,52.277,0,0,0,1.42,8.995.929.929,0,0,1-1.024,1.2l-2.757-.415Z" transform="translate(-2433.69 -752.066)" fill="#163560"/>
      <path id="Path_451" data-name="Path 451" d="M2452.042,756.559s1.3-.438,1.983.211a1.374,1.374,0,0,1,.3,1.509Z" transform="translate(-2431.364 -754.24)" fill="#c65447"/>
      <path id="Path_452" data-name="Path 452" d="M2420.817,760.06s.024-2.865,4.635-2.535a2.254,2.254,0,0,1,1.853,1.2c.519,1.014.745,2.8-.931,5.659Z" transform="translate(-2404.243 -755.182)" fill="#163560"/>
      <path id="Path_453" data-name="Path 453" d="M2428.654,814.007l-1.039,4.061-3,.147-1.494-2.239a4.868,4.868,0,0,0,1.574-4.016c0-.011,0-.021,0-.032a6.519,6.519,0,0,0-.071-.862l2.13-.649,1.623-.494a12.336,12.336,0,0,0-.072,2.76A3,3,0,0,0,2428.654,814.007Z" transform="translate(-2406.243 -800.716)" fill="#e49963"/>
      <path id="Path_454" data-name="Path 454" d="M2416.3,860.143l-10.893-.014s1.355-7.3.6-9.7.037-5.891.037-5.891c1.094-2.6,1.373-5.032,1.86-5.159.267-.07.483-.214.745-.267a14.017,14.017,0,0,1,7.758.7c.96,2.412-1.1,4.224-1.2,9.67A51.589,51.589,0,0,0,2416.3,860.143Z" transform="translate(-2390.859 -825.848)" fill="#e49963"/>
      <path id="Path_455" data-name="Path 455" d="M2341.537,840.983c-.521-.965-3.382-.981-3.382-.981a5.337,5.337,0,0,1-3.542,1.362c-1.812-.011-.981-1.292-.981-1.292a1.223,1.223,0,0,0-.2.044,1.716,1.716,0,0,0-.844.643c.011-.238.018-.378.018-.378s-2.662.726-6.481,7.209c-.113.192-.436.161-1.186.015-.955-.186-2.9-.162-5.843-.593,0,0-.1.073-.129.395a4.749,4.749,0,0,1-.132.92,36.63,36.63,0,0,0,4,1.564c.728.231,1.49.447,2.216.61a11.375,11.375,0,0,0,1.885.283,12.549,12.549,0,0,0,3.3-2.116c-.146,1.033-.218,1.773-.212,1.855a20.339,20.339,0,0,1-.036,2.446s7.718,2.1,9.991,1.023a.95.95,0,0,0,.622-.818c.222-4.2,1.208-7.617,1.3-9.974A4.294,4.294,0,0,0,2341.537,840.983Z" transform="translate(-2315.667 -826.842)" fill="#f4be61"/>
      <path id="Path_456" data-name="Path 456" d="M2463.345,881.821a2.062,2.062,0,0,1,2.67,2.1c-.092,1.42-.206,3.078-.334,5.491a.95.95,0,0,1-.622.818l-2.21-4.585.5-3.826Z" transform="translate(-2440.752 -863.083)" fill="#f2a83d"/>
      <path id="Path_457" data-name="Path 457" d="M2413.7,861.262l-1.049-7.653a.615.615,0,0,0-.132-.3c-1.321-1.663-1.458-6.861-1.461-8.845a.765.765,0,0,0-.747-.773,13.472,13.472,0,0,1,1.441-3.2l-.273-.043c-.153-.024-.423-.05-.423-.05a13.114,13.114,0,0,0-1.638,3.293.223.223,0,0,1-.032.006,22.77,22.77,0,0,1-5.567-.007H2404a15.19,15.19,0,0,1,1.442-3.231,7.232,7.232,0,0,0-.827.265,10.559,10.559,0,0,0-1.481,2.881.6.6,0,0,0-.55.555l-.308,3.595-.422,4.924c-.152,1.09-.114,6.787-.1,8.67a.6.6,0,0,0,.6.605h10.763A.605.605,0,0,0,2413.7,861.262Z" transform="translate(-2387.67 -827.189)" fill="#ee9849"/>
      <path id="Path_458" data-name="Path 458" d="M2438.411,812.683a8.947,8.947,0,0,0-3.609-.724h-.044l.044-.032c.213-.157,1.171-.863,2.059-1.51l1.622-.494A12.348,12.348,0,0,0,2438.411,812.683Z" transform="translate(-2416.352 -800.716)" fill="#d68d5d"/>
      <path id="Path_459" data-name="Path 459" d="M2419.885,775.113s4.577.209,4.663-2.643.735-4.746-2.184-5-3.519.817-3.779,1.762S2418.7,774.985,2419.885,775.113Z" transform="translate(-2402.236 -763.81)" fill="#e49963"/>
      <path id="Path_460" data-name="Path 460" d="M2415.606,765.3s-2.039,1.224-1.82,2.8a2.039,2.039,0,0,1-.756-2.052,2.963,2.963,0,0,1,2.918-2.416,14.416,14.416,0,0,1,2.188.16Z" transform="translate(-2397.459 -760.51)" fill="#163560"/>
      <path id="Path_461" data-name="Path 461" d="M2429.068,766.434c-.812.43,2.545.792,2.75,2.16s1.805,1.891,1.805,1.891S2435.654,762.945,2429.068,766.434Z" transform="translate(-2411.3 -762.142)" fill="#163560"/>
      <path id="Path_462" data-name="Path 462" d="M2424.823,813.444s.033.29.74.329c0,0,.593.033.612-.279A1.907,1.907,0,0,0,2424.823,813.444Z" transform="translate(-2407.723 -803.692)" fill="#fff"/>
      <path id="Path_463" data-name="Path 463" d="M2378.613,852.424a32.591,32.591,0,0,0,5.846,2.224,12.186,12.186,0,0,0,2.176.35,11.019,11.019,0,0,0,5.147-4.019c4.3-6.029.981-6.679.981-6.679s-2.875,1.793-6.936,7.5c-.142.2-.5.155-1.423-.032-.986-.2-2.95-.176-5.662-.574a1.523,1.523,0,0,0-.073.422C2378.609,852.331,2378.613,852.424,2378.613,852.424Z" transform="translate(-2367.586 -830.575)" fill="#f4be61"/>
      <path id="Path_464" data-name="Path 464" d="M2303.983,889.552c-.945-.184-2.954-.2-5.846-.617a5.032,5.032,0,0,1-.718-.284c-.62-.31-2.272-.516-2.624-.186s.372,1.673,1.88,1.714a9.675,9.675,0,0,1,1.217.1,36.548,36.548,0,0,0,3.982,1.558c.728.231,1.49.447,2.217.61A5.348,5.348,0,0,0,2303.983,889.552Z" transform="translate(-2294.708 -868.789)" fill="#a86337"/>
      <g id="Group_268" data-name="Group 268" transform="translate(1.309 16.371)">
        <g id="Group_266" data-name="Group 266" transform="translate(6.043)">
          <path id="Path_465" data-name="Path 465" d="M2354.012,868.605l-.035.812-.074,1.7-.034.782h-2.155l-.049-.782-.106-1.7-.05-.812Z" transform="translate(-2351.396 -868.057)" fill="#c65447"/>
          <path id="Path_466" data-name="Path 466" d="M2353.308,864.431h-2.553l-.1.549h2.729Z" transform="translate(-2350.65 -864.431)" fill="#dce3f1"/>
          <path id="Path_467" data-name="Path 467" d="M2354.311,874.785l-.074,1.7H2352l-.106-1.7Z" transform="translate(-2351.73 -873.424)" fill="#e57970"/>
        </g>
        <g id="Group_267" data-name="Group 267" transform="translate(2.134)">
          <path id="Path_468" data-name="Path 468" d="M2324.27,868.605l-.036.812-.074,1.7-.034.782h-2.155l-.049-.782-.105-1.7-.051-.812Z" transform="translate(-2321.654 -868.057)" fill="#c65447"/>
          <path id="Path_469" data-name="Path 469" d="M2323.565,864.431h-2.552l-.105.549h2.729Z" transform="translate(-2320.907 -864.431)" fill="#dce3f1"/>
          <path id="Path_470" data-name="Path 470" d="M2324.568,874.785l-.074,1.7h-2.238l-.106-1.7Z" transform="translate(-2321.987 -873.424)" fill="#e57970"/>
        </g>
        <path id="Path_471" data-name="Path 471" d="M2315.191,894.221h-10.239a.284.284,0,0,1-.284-.284h0a.284.284,0,0,1,.284-.284h10.239a.285.285,0,0,1,.285.284h0A.284.284,0,0,1,2315.191,894.221Z" transform="translate(-2304.668 -889.812)" fill="#1c468a"/>
      </g>
      <path id="Path_472" data-name="Path 472" d="M2358.761,894.378a3.2,3.2,0,0,1-.054-2.875c-.987-.2-2.964-.286-5.675-.684v0a6.01,6.01,0,0,1-1.111-.4c-.661-.331-2.426-.551-2.8-.2s.4,1.786,2.007,1.83a8.109,8.109,0,0,1,1.735.194A37.572,37.572,0,0,0,2358.761,894.378Z" transform="translate(-2341.888 -870.305)" fill="#b77446"/>
      <path id="Path_473" data-name="Path 473" d="M2419.81,741.979s-1.5.717-2.617,4.018l1.671,0Z" transform="translate(-2401.095 -741.702)" fill="#ee9849"/>
      <path id="Path_474" data-name="Path 474" d="M2429.7,744.16s4.714.073,6.341-.462c0,0-.307-2.859-1.491-3.83l-3.9.277S2429.468,742.971,2429.7,744.16Z" transform="translate(-2411.933 -739.868)" fill="#f4be61"/>
    </g>
    <path id="Rectangle_125" data-name="Rectangle 125" d="M11.453,0H83.11A11.454,11.454,0,0,1,94.564,11.454V25.266A11.452,11.452,0,0,1,83.112,36.718H11.454A11.454,11.454,0,0,1,0,25.264V11.453A11.453,11.453,0,0,1,11.453,0Z" transform="translate(457.58 347.286)" fill="gold"/>
    <path id="Path_475" data-name="Path 475" d="M1346.878,274.428q-2.1-.762-4.218-1.62l-.008,0c-68.5-25.854-69.362-2.959-106.4-4.591-21.442-.945-42.417-24.582-70.769-7.657-.118.071-.236.141-.354.214v11.078c0,1.419,1.48,2.579,3.289,2.579h104.231V382.2a1.6,1.6,0,0,0,1.526,1.65,1.469,1.469,0,0,0,1.078-.485,1.717,1.717,0,0,0,.448-1.166V274.428Z" transform="translate(-822.359 0)" fill="#f9a0ad" opacity="0.4"/>
    <g id="Group_271" data-name="Group 271" transform="translate(462.203 285.533)">
      <path id="Rectangle_126" data-name="Rectangle 126" d="M8.477,0H79.464A8.477,8.477,0,0,1,87.94,8.477v4.672a8.476,8.476,0,0,1-8.476,8.476H8.476A8.476,8.476,0,0,1,0,13.149V8.477A8.477,8.477,0,0,1,8.477,0Z" transform="translate(0 0)" fill="#f9a0ad" opacity="0.4"/>
      <g id="Group_270" data-name="Group 270" transform="translate(6.086 4.456)" opacity="0.6">
        <path id="Path_476" data-name="Path 476" d="M2140.3,524.735h-19.03a1.075,1.075,0,0,0,0,2.151h19.03a1.075,1.075,0,0,0,0-2.151Z" transform="translate(-2120.195 -524.735)" fill="gold" opacity="0.4"/>
        <path id="Path_477" data-name="Path 477" d="M2140.3,564.917h-19.03a1.075,1.075,0,0,0,0,2.15h19.03a1.075,1.075,0,0,0,0-2.15Z" transform="translate(-2120.195 -559.636)" fill="gold" opacity="0.4"/>
        <path id="Path_478" data-name="Path 478" d="M2140.3,605.1h-19.03a1.075,1.075,0,0,0,0,2.15h19.03a1.075,1.075,0,1,0,0-2.15Z" transform="translate(-2120.195 -594.537)" fill="gold" opacity="0.4"/>
        <path id="Path_479" data-name="Path 479" d="M2357.734,524.735H2338.7a1.075,1.075,0,0,0,0,2.151h19.03a1.075,1.075,0,0,0,0-2.151Z" transform="translate(-2309.052 -524.735)" fill="gold" opacity="0.4"/>
        <path id="Path_480" data-name="Path 480" d="M2357.734,564.917H2338.7a1.075,1.075,0,0,0,0,2.15h19.03a1.075,1.075,0,0,0,0-2.15Z" transform="translate(-2309.052 -559.636)" fill="gold" opacity="0.4"/>
        <path id="Path_481" data-name="Path 481" d="M2357.734,605.1H2338.7a1.075,1.075,0,1,0,0,2.15h19.03a1.075,1.075,0,0,0,0-2.15Z" transform="translate(-2309.052 -594.537)" fill="gold" opacity="0.4"/>
        <path id="Rectangle_127" data-name="Rectangle 127" d="M6.356,0H17.321a6.356,6.356,0,0,1,6.356,6.356v0a6.356,6.356,0,0,1-6.356,6.356H6.356A6.356,6.356,0,0,1,0,6.356v0A6.356,6.356,0,0,1,6.356,0Z" transform="translate(53.81 0)" fill="gold" opacity="0.4"/>
      </g>
    </g>
    <g id="Group_273" data-name="Group 273" transform="translate(353.491 285.533)">
      <rect id="Rectangle_128" data-name="Rectangle 128" width="87.94" height="21.625" rx="8.476" transform="translate(0 0)" fill="#f9a0ad" opacity="0.4"/>
      <g id="Group_272" data-name="Group 272" transform="translate(6.086 4.456)" opacity="0.6">
        <path id="Path_482" data-name="Path 482" d="M1313.118,524.735h-19.03a1.075,1.075,0,0,0,0,2.151h19.03a1.075,1.075,0,0,0,0-2.151Z" transform="translate(-1293.013 -524.735)" fill="gold" opacity="0.4"/>
        <path id="Path_483" data-name="Path 483" d="M1313.118,564.917h-19.03a1.075,1.075,0,0,0,0,2.15h19.03a1.075,1.075,0,0,0,0-2.15Z" transform="translate(-1293.013 -559.636)" fill="gold" opacity="0.4"/>
        <path id="Path_484" data-name="Path 484" d="M1313.118,605.1h-19.03a1.075,1.075,0,1,0,0,2.15h19.03a1.075,1.075,0,1,0,0-2.15Z" transform="translate(-1293.013 -594.537)" fill="gold" opacity="0.4"/>
        <path id="Path_485" data-name="Path 485" d="M1530.55,524.735h-19.03a1.075,1.075,0,0,0,0,2.151h19.03a1.075,1.075,0,0,0,0-2.151Z" transform="translate(-1481.869 -524.735)" fill="gold" opacity="0.4"/>
        <path id="Path_486" data-name="Path 486" d="M1530.55,564.917h-19.03a1.075,1.075,0,0,0,0,2.15h19.03a1.075,1.075,0,0,0,0-2.15Z" transform="translate(-1481.869 -559.636)" fill="gold" opacity="0.4"/>
        <path id="Path_487" data-name="Path 487" d="M1530.55,605.1h-19.03a1.075,1.075,0,1,0,0,2.15h19.03a1.075,1.075,0,0,0,0-2.15Z" transform="translate(-1481.869 -594.537)" fill="gold" opacity="0.4"/>
        <rect id="Rectangle_129" data-name="Rectangle 129" width="23.677" height="12.712" rx="6.356" transform="translate(53.809 0)" fill="gold" opacity="0.4"/>
      </g>
    </g>
    <path id="Path_488" data-name="Path 488" d="M579.593,491.95v19.4a1.118,1.118,0,0,1-1.114,1.114H492.766a1.118,1.118,0,0,1-1.114-1.114v-4.027c15.293-2.708,31.28-.21,53.878-16.483h32.949A1.117,1.117,0,0,1,579.593,491.95Z" transform="translate(-237.393 -205.302)" fill="#f9a0ad" opacity="0.4"/>
    <g id="Group_275" data-name="Group 275" transform="translate(558.217 285.533)">
      <path id="Path_489" data-name="Path 489" d="M2877.983,512.451H2805.4a1.045,1.045,0,0,1-.951-1.113v-19.4a1.046,1.046,0,0,1,.951-1.114h59.481a36.579,36.579,0,0,1,5.412,5.623A44.682,44.682,0,0,1,2877.983,512.451Z" transform="translate(-2804.45 -490.826)" fill="#f9a0ad" opacity="0.4"/>
      <g id="Group_274" data-name="Group 274" transform="translate(4.385 4.457)" opacity="0.6">
        <path id="Rectangle_130" data-name="Rectangle 130" d="M1.075,0H17.012a1.075,1.075,0,0,1,1.075,1.075v0a1.075,1.075,0,0,1-1.075,1.075H1.075A1.075,1.075,0,0,1,0,1.075v0A1.075,1.075,0,0,1,1.075,0Z" fill="gold" opacity="0.4"/>
        <path id="Rectangle_131" data-name="Rectangle 131" d="M1.075,0H17.012a1.075,1.075,0,0,1,1.075,1.075v0a1.075,1.075,0,0,1-1.075,1.075H1.075A1.075,1.075,0,0,1,0,1.075v0A1.075,1.075,0,0,1,1.075,0Z" transform="translate(0 5.281)" fill="gold" opacity="0.4"/>
        <path id="Rectangle_132" data-name="Rectangle 132" d="M1.075,0H17.012a1.075,1.075,0,0,1,1.075,1.075v0A1.075,1.075,0,0,1,17.012,2.15H1.075A1.075,1.075,0,0,1,0,1.075v0A1.075,1.075,0,0,1,1.075,0Z" transform="translate(0 10.562)" fill="gold" opacity="0.4"/>
        <path id="Rectangle_133" data-name="Rectangle 133" d="M1.075,0H17.012a1.075,1.075,0,0,1,1.075,1.075v0a1.075,1.075,0,0,1-1.075,1.075H1.075A1.075,1.075,0,0,1,0,1.075v0A1.075,1.075,0,0,1,1.075,0Z" transform="translate(24.403)" fill="gold" opacity="0.4"/>
        <path id="Rectangle_134" data-name="Rectangle 134" d="M1.075,0H17.012a1.075,1.075,0,0,1,1.075,1.075v0a1.075,1.075,0,0,1-1.075,1.075H1.075A1.075,1.075,0,0,1,0,1.075v0A1.075,1.075,0,0,1,1.075,0Z" transform="translate(24.403 5.281)" fill="gold" opacity="0.4"/>
        <path id="Rectangle_135" data-name="Rectangle 135" d="M1.075,0H17.012a1.075,1.075,0,0,1,1.075,1.075v0A1.075,1.075,0,0,1,17.012,2.15H1.075A1.075,1.075,0,0,1,0,1.075v0A1.075,1.075,0,0,1,1.075,0Z" transform="translate(24.403 10.562)" fill="gold" opacity="0.4"/>
        <path id="Rectangle_136" data-name="Rectangle 136" d="M3.755,0h0A3.755,3.755,0,0,1,7.51,3.755v5.2a3.755,3.755,0,0,1-3.755,3.755h0A3.755,3.755,0,0,1,0,8.957v-5.2A3.755,3.755,0,0,1,3.755,0Z" transform="translate(47.545)" fill="gold" opacity="0.4"/>
      </g>
    </g>
    <g id="Group_276" data-name="Group 276" transform="translate(482.212 341.067)">
      <path id="Path_490" data-name="Path 490" d="M2226.131,913.385h7.537l1.206,4.862h-7.45Z" transform="translate(-2226.131 -913.385)" fill="#ff4d4d"/>
      <path id="Path_491" data-name="Path 491" d="M2241.561,925.35h3.316l1.271,4.708h-3.489Z" transform="translate(-2239.533 -923.778)" fill="#ff4d4d"/>
      <path id="Path_492" data-name="Path 492" d="M2266.791,925.35h.224l1.4,4.708h-.38Z" transform="translate(-2261.448 -923.778)" fill="#04ba8e"/>
      <path id="Path_493" data-name="Path 493" d="M2283.477,913.385h.131l1.22,4.862h-.146Z" transform="translate(-2275.94 -913.385)" fill="#04ba8e"/>
    </g>
    <g id="Group_277" data-name="Group 277" transform="translate(559.993 338.023)">
      <path id="Path_494" data-name="Path 494" d="M2817.966,890.223h11.189l1.79,7.219h-11.061Z" transform="translate(-2817.966 -890.223)" fill="#ff4d4d"/>
      <path id="Path_495" data-name="Path 495" d="M2840.873,907.986h4.923l1.886,6.99H2842.5Z" transform="translate(-2837.862 -905.652)" fill="#ff4d4d"/>
      <path id="Path_496" data-name="Path 496" d="M2878.334,907.986h.333l2.074,6.99h-.564Z" transform="translate(-2870.4 -905.652)" fill="#04ba8e"/>
      <path id="Path_497" data-name="Path 497" d="M2903.105,890.223h.195l1.811,7.219h-.216Z" transform="translate(-2891.916 -890.223)" fill="#04ba8e"/>
    </g>
    <g id="Group_279" data-name="Group 279" transform="translate(457.58 318.776)">
      <path id="Path_498" data-name="Path 498" d="M2146.992,1187.188c.057.7,1.055.64,2.178.5s.818.209,2.392.22,2.112-.514,2.187-.739c.066-.2-.693-.362-1.5-.554l-.307-.074a4.13,4.13,0,0,1-2.313-1.5c-.683-.875-1.307-4.857-1.307-4.857l-2.459.459a32.527,32.527,0,0,1,1.579,4.533c.066.5-.292.838-.375,1.277A2.758,2.758,0,0,0,2146.992,1187.188Z" transform="translate(-2131.776 -1122.833)" fill="#b77446"/>
      <path id="Path_499" data-name="Path 499" d="M2156.625,1229.182c.446-.109.826.148,2.4.158s2.112-.514,2.187-.739c.067-.2-.693-.362-1.5-.554l-.01.015a4.411,4.411,0,0,1-2.306.43c-1.057-.1-2.138-.531-2.867-.6a2.737,2.737,0,0,0-.069.731C2154.511,1229.32,2155.292,1229.509,2156.625,1229.182Z" transform="translate(-2139.239 -1164.264)" fill="#365da4"/>
      <g id="Group_278" data-name="Group 278" transform="translate(6.882 28.015)">
        <path id="Path_500" data-name="Path 500" d="M2101.608,989.148a4.022,4.022,0,0,1-1.25.536,2.512,2.512,0,0,1-1.331-.018s-4.369-10.97-4.12-14.677c.006-.089.009-.184.01-.284a15.528,15.528,0,0,0-.245-2.487c-.059-.362-.126-.741-.2-1.133-.175-.914-.392-1.9-.63-2.905-.1-.443-.214-.889-.325-1.335-1.1-4.386-2.441-8.709-2.441-8.709s7.885-2.575,8.331-.168a48,48,0,0,1,.485,10.272,81.5,81.5,0,0,0,.32,12.217A67.393,67.393,0,0,0,2101.608,989.148Z" transform="translate(-2091.075 -956.94)" fill="#365da4"/>
      </g>
      <path id="Path_501" data-name="Path 501" d="M2111.05,1025.251a15.524,15.524,0,0,0-.245-2.487c-.059-.362-.126-.741-.2-1.133-.175-.914-.392-1.9-.63-2.905-.1-.443-.214-.889-.325-1.335.156-1.339.281-2.257.281-2.257A11.22,11.22,0,0,1,2111.05,1025.251Z" transform="translate(-2100.324 -979.472)" fill="#285493"/>
      <path id="Path_502" data-name="Path 502" d="M2078.771,1192.161c.056.7,1.047.7,2.17.563s.826.148,2.4.158,2.112-.514,2.187-.739c.066-.2-.693-.362-1.5-.554l-.307-.074a6.772,6.772,0,0,1-2.313-1.5c-.745-.56-.224-3.279-.224-3.279l-2.312-.826s.349,2.734.349,4.239c0,.507-.292.837-.375,1.277A2.748,2.748,0,0,0,2078.771,1192.161Z" transform="translate(-2073.501 -1127.806)" fill="#b77446"/>
      <path id="Path_503" data-name="Path 503" d="M2080.94,1229.182c.262-.061.826.148,2.4.158s2.112-.514,2.187-.739c.066-.2-.693-.362-1.5-.554l-.01.015a4.411,4.411,0,0,1-2.306.43c-1.057-.1-2.138-.531-2.867-.6a2.747,2.747,0,0,0-.069.731C2078.827,1229.32,2079.5,1229.517,2080.94,1229.182Z" transform="translate(-2073.501 -1164.264)" fill="#365da4"/>
      <path id="Path_504" data-name="Path 504" d="M2071.378,939.364s-2.565,12.785-3,19.743-.974,12.719-.974,12.719a3.39,3.39,0,0,1-1.2.165,4.424,4.424,0,0,1-1.216-.248s-2.542-10.469-1.7-14.66.141-8.056-.263-11.532a9.658,9.658,0,0,1,3.207-8.879C2067.807,935.074,2071.378,939.364,2071.378,939.364Z" transform="translate(-2059.747 -911.011)" fill="#365da4"/>
      <path id="Path_505" data-name="Path 505" d="M2052.159,748.712c.255-2.081-.395-5.412-4.549-4.88s-5.464,4.615-4.626,6.43-1.206,2.253-1.848,4.205c-.552,1.677-.743,3.759-1.635,4.694-2.876,3.013,2.761,7.646,6.159,6.669,6.19-1.78,6.987-2.045,6.767-6.909-.113-2.492-2.051-3.457-.82-4.178C2054.581,753,2051.583,753.422,2052.159,748.712Z" transform="translate(-2038.71 -743.775)" fill="#163560"/>
      <path id="Path_506" data-name="Path 506" d="M2086.046,797.936a11.477,11.477,0,0,0-1.4-.232,5.852,5.852,0,0,1-.187-2.513l-3.091-.941c-.149,3.286-.444,3.7-.506,3.747a14.025,14.025,0,0,0-2.047.659s1.973,11.29,1.126,13.445a22.774,22.774,0,0,0-1.17,4.067l9.2.114a92.933,92.933,0,0,1,.3-10.013C2088.689,803.65,2086.046,797.936,2086.046,797.936Z" transform="translate(-2073.509 -787.616)" fill="#a86337"/>
      <path id="Path_507" data-name="Path 507" d="M2097.817,762.639s-3.7.743-4.128-1.568-1.192-3.772,1.152-4.344,2.968.225,3.3.962S2098.769,762.386,2097.817,762.639Z" transform="translate(-2086.057 -754.854)" fill="#b77446"/>
      <path id="Path_508" data-name="Path 508" d="M2089.367,829.423c-.027-.322-.129-.395-.129-.395-2.94.432-4.888.407-5.843.593-.75.146-1.056.166-1.185-.015-4.062-5.711-6.936-7.5-6.936-7.5a4.862,4.862,0,0,0-1.506-.347s-.173,2.171-1.289,2.356c-1.93.318-3.485-1.45-3.94-2.162a7.835,7.835,0,0,0-2.867,1.3,3.744,3.744,0,0,0-.268,2.609,3.564,3.564,0,0,0,.141.581c.137.363.656,3.025.893,4.085.006.027.011.052.016.075.017.071.031.133.044.185a.022.022,0,0,1,0,0c.014.057.025.1.035.129s.011.035.017.052a.009.009,0,0,0,0,0,8.8,8.8,0,0,1,.427,3.564,3.8,3.8,0,0,1-.106.571c-.309,1.583-1.592,4.705-1.858,6.138a1.883,1.883,0,0,0,.925.784,8.738,8.738,0,0,0,1.771.568,17.07,17.07,0,0,0,1.8.287c.394.044.815.082,1.245.106l.181.01c2.771.138,5.872.069,6.276-1.248.194-.632-.578-4.431-.681-5.56a50.274,50.274,0,0,1,.246-6.8,13.556,13.556,0,0,0,4.62,3.407,11.359,11.359,0,0,0,1.885-.283c.727-.163,1.488-.378,2.216-.609a36.673,36.673,0,0,0,4-1.564A4.742,4.742,0,0,1,2089.367,829.423Z" transform="translate(-2061.558 -811.506)" fill="#80bdcc"/>
      <path id="Path_509" data-name="Path 509" d="M2092.248,752.959s.065.784-1.152,2.114-.927,3.7-.927,3.7-2.051-3.855-.957-5.086A3.306,3.306,0,0,1,2092.248,752.959Z" transform="translate(-2082.295 -751.665)" fill="#163560"/>
      <path id="Path_510" data-name="Path 510" d="M2103.114,745.19a3.757,3.757,0,0,1,3.665,1.183,3.03,3.03,0,0,1,.246,3.182s-.647-1.894-1.824-2.307A5.047,5.047,0,0,1,2103.114,745.19Z" transform="translate(-2094.65 -744.916)" fill="#163560"/>
      <path id="Path_511" data-name="Path 511" d="M2119.423,792.433s.1.274.8.15c0,0,.585-.1.531-.412A1.909,1.909,0,0,0,2119.423,792.433Z" transform="translate(-2108.815 -785.786)" fill="#fff"/>
      <path id="Path_512" data-name="Path 512" d="M2072.908,855.357c-.525,1.78-.83,3.245-2.148,4.235-.429-.025-.851-.062-1.245-.106a17.07,17.07,0,0,1-1.8-.287,8.738,8.738,0,0,1-1.771-.568,1.883,1.883,0,0,1-.925-.784c.266-1.433,1.55-4.555,1.858-6.138a3.76,3.76,0,0,0,.061-.415,10.327,10.327,0,0,0-.382-3.72.009.009,0,0,1,0,0l-.051-.181a.025.025,0,0,0,0,0c-.011-.039-.026-.1-.044-.185-.005-.023-.01-.048-.016-.075-.212-1-.765-4.156-.906-4.567a4.08,4.08,0,0,1-.138-.628l1.107-1.065s6.352,2.713,7.752,6.454S2073.662,852.8,2072.908,855.357Z" transform="translate(-2061.558 -828.105)" fill="#5f9aa8"/>
      <path id="Path_513" data-name="Path 513" d="M2162.479,875.551a17.807,17.807,0,0,1-4.1.892,13.571,13.571,0,0,1-4.665-3.457c-.1-.432-.189-1.157.334-.948.735.293,3.45,3.781,4.479,3.854A31.942,31.942,0,0,0,2162.479,875.551Z" transform="translate(-2138.533 -855.15)" fill="#5f9aa8"/>
      <path id="Path_514" data-name="Path 514" d="M2081.13,837.759a32.589,32.589,0,0,1-5.846,2.224,12.174,12.174,0,0,1-2.176.35,11.018,11.018,0,0,1-5.147-4.019c-4.3-6.029-.981-6.679-.981-6.679s2.875,1.793,6.936,7.5c.142.2.5.155,1.423-.032.987-.2,2.95-.176,5.661-.574a1.505,1.505,0,0,1,.073.422C2081.134,837.666,2081.13,837.759,2081.13,837.759Z" transform="translate(-2062.201 -818.351)" fill="#80bdcc"/>
      <path id="Path_515" data-name="Path 515" d="M2212.376,872.228c-.351-.331-2-.124-2.624.186a5.016,5.016,0,0,1-.718.284c-2.892.419-4.9.433-5.846.618a5.354,5.354,0,0,0-.108,2.9c.727-.163,1.488-.378,2.216-.61a36.558,36.558,0,0,0,3.983-1.559,9.694,9.694,0,0,1,1.217-.1C2212,873.9,2212.727,872.559,2212.376,872.228Z" transform="translate(-2181.351 -855.2)" fill="#a86337"/>
      <path id="Path_516" data-name="Path 516" d="M2147.9,875.557c-.375-.353-2.139-.132-2.8.2a6.014,6.014,0,0,1-1.111.4v0c-2.711.4-4.688.485-5.675.684a3.2,3.2,0,0,1-.054,2.875,37.577,37.577,0,0,0,5.9-2.132,8.117,8.117,0,0,1,1.735-.194C2147.5,877.343,2148.274,875.91,2147.9,875.557Z" transform="translate(-2125.175 -858.081)" fill="#b77446"/>
    </g>
    <path id="Path_517" data-name="Path 517" d="M3188.763,738.366q0,.547,0,1.1a82.266,82.266,0,0,1-2.532,19.115h-25.481a1.553,1.553,0,0,1-1.4-1.665v-24a1.553,1.553,0,0,1,1.4-1.665h27.584a65.1,65.1,0,0,1,.425,6.572C3188.76,738.007,3188.761,738.186,3188.763,738.366Z" transform="translate(-2554.491 -414.124)" fill="#f9a0ad" opacity="0.4"/>
    <g id="Group_280" data-name="Group 280" transform="translate(608.097 320.566)" opacity="0.4">
      <path id="Path_518" data-name="Path 518" d="M3205.377,775.911H3192.96l.085-1.674h-.227c-.066-.757-1.44-.521-1.474,0h-.269l.108,1.674h-1.224l.085-1.674h-.227c-.065-.757-1.44-.521-1.474,0h-.269l.108,1.674h-1.224l.085-1.674h-.227c-.065-.757-1.44-.521-1.474,0h-.269l.108,1.674h-.734a.465.465,0,0,0-.464.463v.2a.465.465,0,0,0,.464.464h20.929a.465.465,0,0,0,.464-.464v-.2A.465.465,0,0,0,3205.377,775.911Z" transform="translate(-3183.985 -771.603)" fill="gold"/>
      <path id="Rectangle_137" data-name="Rectangle 137" d="M.565,0H21.291a.565.565,0,0,1,.565.565v0a.565.565,0,0,1-.565.565H.565A.565.565,0,0,1,0,.565v0A.565.565,0,0,1,.565,0Z" transform="translate(0 13.927)" fill="gold"/>
      <path id="Path_519" data-name="Path 519" d="M3199.282,832.183c-.124-.9-.934-.768-1.65-1.369s-2.055.509-3.114.879a2.167,2.167,0,0,0-1.153,1.572h-1.088l.436,1.674h7.192l.343-1.674h-.917A5.751,5.751,0,0,0,3199.282,832.183Z" transform="translate(-3191.187 -821.013)" fill="gold"/>
      <path id="Path_520" data-name="Path 520" d="M3274.141,832.183c-.125-.9-.934-.768-1.65-1.369s-2.055.509-3.114.879a2.166,2.166,0,0,0-1.153,1.572h-1.088l.436,1.674h7.192l.342-1.674h-.917A5.751,5.751,0,0,0,3274.141,832.183Z" transform="translate(-3256.208 -821.013)" fill="gold"/>
      <path id="Path_521" data-name="Path 521" d="M3274.764,761.693l.342-1.674h-.917a5.752,5.752,0,0,0-.048-1.082c-.125-.9-.934-.768-1.65-1.369s-2.055.509-3.114.879a2.167,2.167,0,0,0-1.153,1.572h-1.088l.436,1.674Z" transform="translate(-3256.208 -757.392)" fill="gold"/>
      <path id="Path_522" data-name="Path 522" d="M3205.377,901.632H3192.96l.085-1.674h-.227c-.066-.757-1.44-.521-1.474,0h-.269l.108,1.674h-1.224l.085-1.674h-.227c-.065-.757-1.44-.521-1.474,0h-.269l.108,1.674h-1.224l.085-1.674h-.227c-.065-.757-1.44-.521-1.474,0h-.269l.108,1.674h-.734a.465.465,0,0,0-.464.464v.2a.465.465,0,0,0,.464.464h20.929a.465.465,0,0,0,.464-.464v-.2A.465.465,0,0,0,3205.377,901.632Z" transform="translate(-3183.985 -880.801)" fill="gold"/>
      <path id="Path_523" data-name="Path 523" d="M3274.141,884.657c-.125-.9-.934-.768-1.65-1.369s-2.055.509-3.114.879a2.166,2.166,0,0,0-1.153,1.572h-1.088l.436,1.674h7.192l.342-1.674h-.917A5.752,5.752,0,0,0,3274.141,884.657Z" transform="translate(-3256.208 -866.59)" fill="gold"/>
    </g>
    <g id="Group_290" data-name="Group 290" transform="translate(247.75 326.622)">
      <g id="Group_285" data-name="Group 285" transform="translate(0 0)">
        <g id="Group_281" data-name="Group 281">
          <path id="Path_524" data-name="Path 524" d="M449,834.748h-.007a.459.459,0,0,1-.479-.437,70.667,70.667,0,0,0-6.339-30.069c-.111-.217-.09-.7.616-.762.617-.054,1,.081,1.11.3a66.988,66.988,0,0,1,3.1,8.513c1.5,4.963,2.63,13.09,2.486,22.033A.461.461,0,0,1,449,834.748Z" transform="translate(-442.122 -803.468)" fill="#ee9849"/>
        </g>
        <g id="Group_282" data-name="Group 282" transform="translate(14.596)">
          <path id="Path_525" data-name="Path 525" d="M560.059,834.748h-.007a.459.459,0,0,1-.479-.437,70.672,70.672,0,0,0-6.339-30.069c-.111-.217-.09-.7.615-.762.617-.054,1,.081,1.11.3a66.932,66.932,0,0,1,3.1,8.513c1.5,4.963,2.63,13.09,2.486,22.033A.462.462,0,0,1,560.059,834.748Z" transform="translate(-553.185 -803.468)" fill="#ee9849"/>
        </g>
        <g id="Group_283" data-name="Group 283" transform="translate(2.067 4.316)">
          <path id="Path_526" data-name="Path 526" d="M458.336,837.967a.473.473,0,0,1-.478-.358.439.439,0,0,1,.4-.5c.421-.064,10.347-1.545,14.791-.309a.423.423,0,0,1,.318.539.5.5,0,0,1-.609.282c-4.22-1.174-14.236.321-14.336.336A.523.523,0,0,1,458.336,837.967Z" transform="translate(-457.851 -836.312)" fill="#ee9849"/>
        </g>
        <g id="Group_284" data-name="Group 284" transform="translate(3.202 7.167)">
          <path id="Path_527" data-name="Path 527" d="M466.97,859.655a.473.473,0,0,1-.478-.358.439.439,0,0,1,.4-.5c.42-.064,10.347-1.546,14.791-.309a.423.423,0,0,1,.318.54.5.5,0,0,1-.609.282c-4.222-1.175-14.236.321-14.336.336A.538.538,0,0,1,466.97,859.655Z" transform="translate(-466.485 -858)" fill="#ee9849"/>
        </g>
      </g>
      <path id="Path_528" data-name="Path 528" d="M489.984,1024.929H519.9s-.7-2.89-18.021-2.46C489.617,1022.774,489.984,1024.929,489.984,1024.929Z" transform="translate(-483.693 -993.65)" fill="#ee9849"/>
      <g id="Group_286" data-name="Group 286" transform="translate(3.857 31.727)">
        <path id="Path_529" data-name="Path 529" d="M471.466,1070.385c3.468-15.438,2.576-24.911,2.572-25.03-.009-.238.49-.453.758-.461s1.469-.07,1.607.133c.182.266.88,11.938-4.289,25.358Z" transform="translate(-471.466 -1044.88)" fill="#e58638"/>
      </g>
      <g id="Group_287" data-name="Group 287" transform="translate(24.18 31.727)">
        <path id="Path_530" data-name="Path 530" d="M631.175,1070.385c-3.468-15.438-2.576-24.911-2.572-25.03.009-.238-.49-.453-.757-.461s-1.469-.07-1.607.133c-.182.266-.88,11.938,4.289,25.358Z" transform="translate(-626.104 -1044.88)" fill="#e58638"/>
      </g>
      <g id="Group_288" data-name="Group 288" transform="translate(32.25 31.727)">
        <path id="Path_531" data-name="Path 531" d="M692.584,1070.385c-3.468-15.438-2.577-24.911-2.572-25.03.009-.238-.489-.453-.757-.461s-1.468-.07-1.607.133c-.181.266-.88,11.938,4.289,25.358Z" transform="translate(-687.513 -1044.88)" fill="#ce6d25"/>
      </g>
      <g id="Group_289" data-name="Group 289" transform="translate(12.638 31.727)">
        <path id="Path_532" data-name="Path 532" d="M538.285,1070.385c3.468-15.438,2.577-24.911,2.572-25.03-.009-.238.49-.453.758-.461s1.468-.07,1.607.133c.182.266.88,11.938-4.289,25.358Z" transform="translate(-538.285 -1044.88)" fill="#ce6d25"/>
      </g>
      <path id="Path_533" data-name="Path 533" d="M516.142,1042.4H485.925a.462.462,0,0,1-.461-.461h0a.462.462,0,0,1,.461-.461h30.217a.462.462,0,0,1,.461.461h0A.462.462,0,0,1,516.142,1042.4Z" transform="translate(-479.768 -1010.195)" fill="#e58638"/>
    </g>
    <g id="Group_300" data-name="Group 300" transform="translate(379.385 335.203)">
      <g id="Group_295" data-name="Group 295" transform="translate(0 0)">
        <g id="Group_291" data-name="Group 291">
          <path id="Path_534" data-name="Path 534" d="M1449.567,895.356h-.006a.39.39,0,0,1-.407-.371,60.069,60.069,0,0,0-5.388-25.56c-.094-.184-.076-.6.523-.648.524-.046.849.068.943.253a56.934,56.934,0,0,1,2.634,7.236A66.386,66.386,0,0,1,1449.98,895,.393.393,0,0,1,1449.567,895.356Z" transform="translate(-1443.724 -868.767)" fill="#ee9849"/>
        </g>
        <g id="Group_292" data-name="Group 292" transform="translate(12.408)">
          <path id="Path_535" data-name="Path 535" d="M1543.976,895.356h-.006a.39.39,0,0,1-.407-.371,60.072,60.072,0,0,0-5.388-25.56c-.094-.184-.076-.6.523-.648.524-.046.849.068.943.253a56.948,56.948,0,0,1,2.634,7.236A66.373,66.373,0,0,1,1544.389,895,.392.392,0,0,1,1543.976,895.356Z" transform="translate(-1538.133 -868.767)" fill="#ee9849"/>
        </g>
        <g id="Group_293" data-name="Group 293" transform="translate(1.757 3.669)">
          <path id="Path_536" data-name="Path 536" d="M1457.507,898.092a.4.4,0,0,1-.406-.3.373.373,0,0,1,.337-.422c.357-.054,8.8-1.314,12.573-.263a.36.36,0,0,1,.27.459.424.424,0,0,1-.517.24c-3.587-1-12.1.273-12.187.286A.47.47,0,0,1,1457.507,898.092Z" transform="translate(-1457.094 -896.686)" fill="#ee9849"/>
        </g>
        <g id="Group_294" data-name="Group 294" transform="translate(2.722 6.092)">
          <path id="Path_537" data-name="Path 537" d="M1464.846,916.529a.4.4,0,0,1-.406-.3.373.373,0,0,1,.337-.422c.358-.054,8.8-1.314,12.573-.263a.36.36,0,0,1,.27.459.424.424,0,0,1-.518.239c-3.589-1-12.1.273-12.186.286A.458.458,0,0,1,1464.846,916.529Z" transform="translate(-1464.433 -915.122)" fill="#ee9849"/>
        </g>
      </g>
      <path id="Path_538" data-name="Path 538" d="M1484.409,1057.021h25.428s-.592-2.457-15.319-2.091C1484.1,1055.189,1484.409,1057.021,1484.409,1057.021Z" transform="translate(-1479.062 -1030.432)" fill="#ee9849"/>
      <g id="Group_296" data-name="Group 296" transform="translate(3.278 26.97)">
        <path id="Path_539" data-name="Path 539" d="M1468.668,1095.66c2.948-13.123,2.19-21.175,2.186-21.277-.007-.2.416-.385.644-.392s1.248-.06,1.366.113c.154.227.748,10.148-3.646,21.556Z" transform="translate(-1468.668 -1073.98)" fill="#e58638"/>
      </g>
      <g id="Group_297" data-name="Group 297" transform="translate(20.554 26.97)">
        <path id="Path_540" data-name="Path 540" d="M1604.429,1095.66c-2.948-13.123-2.19-21.175-2.186-21.277.007-.2-.416-.385-.644-.392s-1.248-.06-1.366.113c-.154.227-.748,10.148,3.646,21.556Z" transform="translate(-1600.118 -1073.98)" fill="#e58638"/>
      </g>
      <g id="Group_298" data-name="Group 298" transform="translate(27.414 26.97)">
        <path id="Path_541" data-name="Path 541" d="M1656.63,1095.66c-2.948-13.123-2.19-21.175-2.187-21.277.008-.2-.416-.385-.644-.392s-1.248-.06-1.366.113c-.154.227-.748,10.148,3.646,21.556Z" transform="translate(-1652.319 -1073.98)" fill="#ce6d25"/>
      </g>
      <g id="Group_299" data-name="Group 299" transform="translate(10.743 26.97)">
        <path id="Path_542" data-name="Path 542" d="M1525.468,1095.66c2.948-13.123,2.19-21.175,2.186-21.277-.007-.2.416-.385.644-.392s1.248-.06,1.366.113c.154.227.748,10.148-3.646,21.556Z" transform="translate(-1525.468 -1073.98)" fill="#ce6d25"/>
      </g>
      <path id="Path_543" data-name="Path 543" d="M1506.644,1071.868h-25.686a.393.393,0,0,1-.392-.392h0a.393.393,0,0,1,.392-.392h25.686a.393.393,0,0,1,.392.392h0A.393.393,0,0,1,1506.644,1071.868Z" transform="translate(-1475.724 -1044.495)" fill="#e58638"/>
    </g>
    <g id="Group_310" data-name="Group 310" transform="translate(341.375 326.74)">
      <g id="Group_305" data-name="Group 305" transform="translate(15.353 0)">
        <g id="Group_301" data-name="Group 301" transform="translate(14.596)">
          <path id="Path_544" data-name="Path 544" d="M1382.891,835.646h.007a.458.458,0,0,0,.479-.436,70.672,70.672,0,0,1,6.339-30.069c.111-.217.09-.7-.616-.762-.617-.054-1,.081-1.11.3a67.056,67.056,0,0,0-3.1,8.513c-1.5,4.963-2.63,13.09-2.486,22.033A.461.461,0,0,0,1382.891,835.646Z" transform="translate(-1382.393 -804.367)" fill="#ee9849"/>
        </g>
        <g id="Group_302" data-name="Group 302">
          <path id="Path_545" data-name="Path 545" d="M1271.828,835.646h.007a.459.459,0,0,0,.479-.436,70.668,70.668,0,0,1,6.339-30.069c.111-.217.09-.7-.616-.762-.617-.054-1,.081-1.11.3a66.952,66.952,0,0,0-3.1,8.513c-1.5,4.963-2.63,13.09-2.486,22.033A.461.461,0,0,0,1271.828,835.646Z" transform="translate(-1271.331 -804.367)" fill="#ee9849"/>
        </g>
        <g id="Group_303" data-name="Group 303" transform="translate(4.366 4.316)">
          <path id="Path_546" data-name="Path 546" d="M1319.6,838.865a.472.472,0,0,0,.478-.358.439.439,0,0,0-.4-.5c-.42-.064-10.347-1.546-14.791-.309a.423.423,0,0,0-.318.539.5.5,0,0,0,.609.282c4.22-1.174,14.236.321,14.336.337A.55.55,0,0,0,1319.6,838.865Z" transform="translate(-1304.554 -837.211)" fill="#ee9849"/>
        </g>
        <g id="Group_304" data-name="Group 304" transform="translate(3.232 7.167)">
          <path id="Path_547" data-name="Path 547" d="M1310.97,860.554a.473.473,0,0,0,.478-.358.439.439,0,0,0-.4-.5c-.42-.063-10.347-1.546-14.79-.309a.423.423,0,0,0-.318.539.5.5,0,0,0,.609.282c4.222-1.175,14.236.321,14.336.336A.525.525,0,0,0,1310.97,860.554Z" transform="translate(-1295.92 -858.899)" fill="#ee9849"/>
        </g>
      </g>
      <path id="Path_548" data-name="Path 548" d="M1192.919,1025.828h-29.913s.7-2.89,18.021-2.46C1193.286,1023.673,1192.919,1025.828,1192.919,1025.828Z" transform="translate(-1161.889 -994.548)" fill="#ee9849"/>
      <g id="Group_306" data-name="Group 306" transform="translate(28.394 31.727)">
        <path id="Path_549" data-name="Path 549" d="M1375.628,1071.284c-3.468-15.438-2.577-24.911-2.572-25.03.009-.238-.489-.454-.758-.461s-1.468-.07-1.607.133c-.181.266-.88,11.938,4.289,25.358Z" transform="translate(-1370.557 -1045.779)" fill="#e58638"/>
      </g>
      <g id="Group_307" data-name="Group 307" transform="translate(8.071 31.727)">
        <path id="Path_550" data-name="Path 550" d="M1215.919,1071.284c3.469-15.438,2.577-24.911,2.572-25.03-.009-.238.49-.454.757-.461s1.469-.07,1.607.133c.181.266.88,11.938-4.289,25.358Z" transform="translate(-1215.919 -1045.779)" fill="#e58638"/>
      </g>
      <g id="Group_308" data-name="Group 308" transform="translate(0 31.727)">
        <path id="Path_551" data-name="Path 551" d="M1154.51,1071.284c3.468-15.438,2.576-24.911,2.572-25.03-.009-.238.49-.454.758-.461s1.468-.07,1.607.133c.182.266.88,11.938-4.289,25.358Z" transform="translate(-1154.51 -1045.779)" fill="#ce6d25"/>
      </g>
      <g id="Group_309" data-name="Group 309" transform="translate(19.612 31.727)">
        <path id="Path_552" data-name="Path 552" d="M1308.809,1071.284c-3.468-15.438-2.577-24.911-2.572-25.03.009-.238-.49-.454-.758-.461s-1.468-.07-1.607.133c-.181.266-.88,11.938,4.289,25.358Z" transform="translate(-1303.738 -1045.779)" fill="#ce6d25"/>
      </g>
      <path id="Path_553" data-name="Path 553" d="M1158.671,1043.294h30.217a.463.463,0,0,0,.461-.461h0a.463.463,0,0,0-.461-.461h-30.217a.463.463,0,0,0-.461.461h0A.463.463,0,0,0,1158.671,1043.294Z" transform="translate(-1157.724 -1011.092)" fill="#e58638"/>
    </g>
    <g id="Group_314" data-name="Group 314" transform="translate(259.825 298.077)">
      <path id="Path_554" data-name="Path 554" d="M770.546,872.314s1.748-1.089,2.507-.924,2.837.759,2.9,1.616-2.969,2.21-5.213,1.452S770.546,872.314,770.546,872.314Z" transform="translate(-738.718 -833.905)" fill="#e49963"/>
      <path id="Path_555" data-name="Path 555" d="M705.636,1167.064a.9.9,0,0,0,.512.825l0,0c.595.328,1.544.076,2.681.027.145-.006.371.274.487.274h.161c1.125.028,1.006.364,3.142.547,2.436.208,3.333-.537,3.477-.877.121-.288-.925-.615-2.092-.988l-.17-.054-.467-.151c-1.39-.462-2.759-1.01-3.1-2.418-.362-1.493.727-5.658.727-5.658l-3.86-.417s-.372,4.355-.615,5.712a15.025,15.025,0,0,1-.651,1.921q-.021.065-.039.13A4.27,4.27,0,0,0,705.636,1167.064Z" transform="translate(-683.079 -1083.017)" fill="#d38957"/>
      <g id="Group_311" data-name="Group 311" transform="translate(22.556 82.795)">
        <path id="Path_556" data-name="Path 556" d="M716.1,1218.312c-.077.181-.238.712-1.26.928h-3.874l-.035-.016a7.423,7.423,0,0,0-3.1-.645,9.285,9.285,0,0,1-1.109-.046h0a1.45,1.45,0,0,1-.5-.157h0c-.022-.012-.044-.024-.065-.038l0,0c-.02-.01-.038-.021-.057-.033h0a1.059,1.059,0,0,1-.1-.069c-.017-.012-.032-.024-.047-.037s-.03-.026-.044-.04l-.031-.031c-.018-.019-.034-.039-.051-.06l0,0c-.009-.012-.018-.024-.027-.037s-.019-.027-.027-.042l0,0,0,0a.289.289,0,0,1-.02-.036,0,0,0,0,1,0,0c0-.008-.008-.017-.012-.025a.4.4,0,0,1-.017-.037.554.554,0,0,1-.02-.055.447.447,0,0,1-.014-.045.6.6,0,0,1-.014-.06.426.426,0,0,1-.008-.049c0-.011,0-.022,0-.034s0-.033,0-.049,0-.047,0-.071v-.006c0-.02,0-.041,0-.061s0-.04,0-.061,0-.042,0-.063,0-.041.006-.063.007-.061.01-.09l0-.018c0-.019,0-.038.008-.057s.009-.057.014-.085c.008-.049.019-.1.029-.146l.014-.061c.01-.047.022-.092.033-.138.006-.023.012-.047.018-.069l.036-.136c.007-.022.012-.046.019-.068.012-.044.025-.088.039-.13,1.161.27,2.775,1.078,4.4,1.384l.074.013a7.073,7.073,0,0,0,2.312.016,6.724,6.724,0,0,0,1.351-.347C715.174,1217.7,716.219,1218.024,716.1,1218.312Z" transform="translate(-705.633 -1216.259)" fill="#2f5791"/>
        <path id="Path_557" data-name="Path 557" d="M710.4,1231.937v-.775l-.071-.011-1.736-.273.064.122h0l.042.079.128.24h0l.33.618Z" transform="translate(-708.205 -1228.956)" fill="#2f5791"/>
      </g>
      <path id="Path_558" data-name="Path 558" d="M550.655,935.45l12.5-1.191s19.125.086,20.906,2.611c0,0,3.415,2.367-.445,12.15s-8.393,19.56-8.393,19.56a8.829,8.829,0,0,1-2.738.193,10.678,10.678,0,0,1-1.468-.263s.871-14.6,2.8-20.279,2.524-4.576-.891-4.26-14.4,2.84-19.447,2.209S550.655,935.45,550.655,935.45Z" transform="translate(-548.042 -888.526)" fill="#b74b42"/>
      <path id="Path_559" data-name="Path 559" d="M687.311,1167.064a.9.9,0,0,0,.512.825l0,0c.595.328,1.544.076,2.681.027.146-.006.371.274.487.274h.161c1.124.028,1.006.364,3.142.547,2.436.208,3.334-.537,3.477-.877.121-.288-.924-.615-2.092-.988l-.17-.054-.467-.151c-1.391-.462-2.759-1.01-3.1-2.418-.362-1.493.727-5.658.727-5.658l-3.86-.417s-.372,4.355-.615,5.712a15.025,15.025,0,0,1-.651,1.921q-.021.065-.039.13A4.27,4.27,0,0,0,687.311,1167.064Z" transform="translate(-667.163 -1083.017)" fill="#e49963"/>
      <path id="Path_560" data-name="Path 560" d="M534.871,943.532l11.718-.99s19.125.084,20.906,2.529c0,0,2.89,1.81-.97,11.285s-7.769,19.9-7.769,19.9a9.853,9.853,0,0,1-1.914.034,2.973,2.973,0,0,1-1.757-.535s.272-12.965,2.2-18.466,2.672-4.941-.742-4.636-13.015,2.7-19.631,1.433C531.918,953.13,534.871,943.532,534.871,943.532Z" transform="translate(-534.005 -895.72)" fill="#c65447"/>
      <g id="Group_312" data-name="Group 312" transform="translate(20.148 82.795)">
        <path id="Path_561" data-name="Path 561" d="M697.784,1218.266a.116.116,0,0,1-.009.046,1.366,1.366,0,0,1-1.054.878c-.064.019-.132.036-.205.05h-3.874a7.706,7.706,0,0,0-.728-.286,7.029,7.029,0,0,0-1.569-.332h0c-.3-.03-.581-.039-.838-.043a3.3,3.3,0,0,1-1.679-.241l0,0c-.019-.01-.038-.021-.057-.033h0a1.1,1.1,0,0,1-.1-.069c-.016-.012-.032-.024-.047-.037a.584.584,0,0,1-.044-.04l-.031-.031-.03-.034a.423.423,0,0,1-.028-.036c-.006-.008-.011-.014-.016-.022a.432.432,0,0,1-.027-.039c-.008-.012-.015-.024-.022-.037s-.022-.041-.032-.062c0,0,0,0,0,0a.446.446,0,0,1-.017-.042.326.326,0,0,1-.011-.032l0,0,0-.005a.011.011,0,0,1,0,0c0-.013-.008-.027-.012-.04a.364.364,0,0,1-.011-.048.4.4,0,0,1-.009-.049c0-.01,0-.021,0-.032v0c0-.016,0-.033,0-.049s0-.047,0-.071a4.219,4.219,0,0,1,.2-1.122c.011-.044.024-.088.038-.13a22.657,22.657,0,0,1,2.221.749,14.4,14.4,0,0,0,2.18.635,7.1,7.1,0,0,0,2.482.013,6.554,6.554,0,0,0,1.255-.331c.377.12.741.236,1.057.347l.177.063.157.06q.076.029.145.059l.068.029.064.029c.041.019.08.038.116.057l.052.028q.05.028.092.056c.021.014.042.029.06.043l.035.032.018.018a.212.212,0,0,1,.05.075.139.139,0,0,1,.006.019v0A.111.111,0,0,1,697.784,1218.266Z" transform="translate(-687.309 -1216.259)" fill="#365da4"/>
        <path id="Path_562" data-name="Path 562" d="M692.076,1231.162v.775h-1.239l-.5-.937h0l-.064-.122,1.736.273Z" transform="translate(-689.88 -1228.956)" fill="#365da4"/>
      </g>
      <path id="Path_563" data-name="Path 563" d="M676.638,739.1a1.272,1.272,0,0,1-.094.312c-.495,1.089-10.788,2.474-12.074,1.781-.575-.31-1.411-5.5-2.16-11.144-.925-6.978-1.717-14.65-1.717-14.65s4.273,1.348,4.767,3.625.594,16.33,1.881,17.023,6.73.1,8.611.4A4.842,4.842,0,0,1,676.638,739.1Z" transform="translate(-643.956 -698.429)" fill="#ee9849"/>
      <path id="Path_564" data-name="Path 564" d="M600.8,587.075a3.929,3.929,0,0,0-2.708-.518,1.266,1.266,0,0,1,.571-.271,4.2,4.2,0,0,0-1.5.391s-3.92-2.007-5.734,3.14c0,0,.313-.389.743-.83-1.049,2.96.01,7.44,3.315,8.237C597.636,597.741,609,593.66,600.8,587.075Z" transform="translate(-583.883 -586.279)" fill="#163560"/>
      <path id="Path_565" data-name="Path 565" d="M622.77,682.033a5.944,5.944,0,0,1-3.647.666,4.731,4.731,0,0,1-2.429-2.329c.627-.125.808-.987.795-4.691l.283.056,4.768.944s-.109,1.5-.112,2.914C622.427,680.781,622.5,681.907,622.77,682.033Z" transform="translate(-605.827 -663.93)" fill="#e49963"/>
      <path id="Path_566" data-name="Path 566" d="M629.67,677.049s-.109,1.5-.112,2.914c-2.668-.075-4.079-2.509-4.657-3.858Z" transform="translate(-612.956 -664.3)" fill="#d68d5d"/>
      <path id="Path_567" data-name="Path 567" d="M609.427,607.407a14.025,14.025,0,0,1-1.734-4.1c-.24-1.349.447-6.348,5.471-5.628a6.825,6.825,0,0,1,2.831,1.07c1.091.737,2.665,2.327.9,6.69l-.457,1.474Z" transform="translate(-597.973 -596.12)" fill="#163560"/>
      <path id="Path_568" data-name="Path 568" d="M625.745,623.074s-6.313.1-6.317-3.828-.822-6.567,3.208-6.8,4.815,1.267,5.136,2.579S627.386,622.945,625.745,623.074Z" transform="translate(-608.139 -608.986)" fill="#e49963"/>
      <path id="Path_569" data-name="Path 569" d="M612.1,606.589s-1.728,4.614-4.381,5.3-3.8-.029-3.8-.029a7.512,7.512,0,0,0,2.457-4.438S610.792,604.393,612.1,606.589Z" transform="translate(-594.724 -603.226)" fill="#163560"/>
      <path id="Path_570" data-name="Path 570" d="M679.653,756c-.11-.448.835-.785,1.066-.386a8.591,8.591,0,0,1,.693,2.441,15.76,15.76,0,0,1,0,5.081Z" transform="translate(-660.503 -733.201)" fill="#e58638"/>
      <path id="Path_571" data-name="Path 571" d="M662.926,609.75a5.577,5.577,0,0,1,1.606,2.031c.315,1,.456,3.063,1.057,2.992,0,0,1.3-3.136-.161-4.909C663.875,607.983,662.926,609.75,662.926,609.75Z" transform="translate(-645.983 -606.012)" fill="#163560"/>
      <path id="Path_572" data-name="Path 572" d="M657.285,673.225s.118.5,1.36.423c0,0,1.043-.065,1.011-.614A3.357,3.357,0,0,0,657.285,673.225Z" transform="translate(-641.083 -661.521)" fill="#fff"/>
      <path id="Path_573" data-name="Path 573" d="M694.912,826.719a1.273,1.273,0,0,1-.094.312c-.495,1.089-10.788,2.474-12.075,1.781-.575-.31-1.585-6.763-.859-12.537.778,3.3,1.015,10.073,2.837,10.392C686.789,827.03,692.212,826.339,694.912,826.719Z" transform="translate(-662.23 -786.049)" fill="#e58638"/>
      <path id="Path_574" data-name="Path 574" d="M556.459,725.106c-2.558,12.334-.418,14.227-1.747,15.44-.007.006-1.18.513-1.188.52-1.385,1.2-1.42-.254-5.775,1.633a70.418,70.418,0,0,1-7.057,2.8,14.448,14.448,0,0,1-2.432.546c-1.4.164-2.444-.079-2.784-1.024-.99-2.746,3.761-10.041,2.573-15.018-.01-.043-.02-.086-.029-.129a5.458,5.458,0,0,1-.057-1.484c.222-2.777,1.976-6.813,3.793-10.259,2.006-3.8,4.089-6.886,4.276-6.775,5.291,3.14,5.769.529,5.769.529S557.332,720.9,556.459,725.106Z" transform="translate(-535.165 -694.911)" fill="#ee9849"/>
      <path id="Path_575" data-name="Path 575" d="M553.945,802.378h0c-1.386,1.2-1.841-.081-6.2,1.806a70.447,70.447,0,0,1-7.057,2.8,14.7,14.7,0,0,0-2.432.546c-1.4.164-2.444-.079-2.784-1.024-.99-2.747,3.761-10.041,2.573-15.018-.01-.043-.02-.086-.029-.129a4.607,4.607,0,0,1-.057-1.484c.25-2.11,1.8-4.4,3.56-7.734,1.176,1.242,10.006-.2,7.918,12.075C548.8,797.975,553.4,799.458,553.945,802.378Z" transform="translate(-535.165 -756.397)" fill="#e58638"/>
      <g id="Group_313" data-name="Group 313" transform="translate(33.236 38.01)">
        <path id="Path_576" data-name="Path 576" d="M787.4,877.937h0a2.072,2.072,0,0,0,3.631-1.369v-.808a2.045,2.045,0,0,0-.017-.259H786.9a14.419,14.419,0,0,0,.092,1.536A1.9,1.9,0,0,0,787.4,877.937Z" transform="translate(-786.897 -875.501)" fill="#c45446"/>
        <path id="Path_577" data-name="Path 577" d="M800.222,875.5h-.558a2.011,2.011,0,0,1,.017.26v.808a2.081,2.081,0,0,1-1.8,2.055,1.912,1.912,0,0,0,.279.02,2.081,2.081,0,0,0,2.075-2.075v-.808A2.033,2.033,0,0,0,800.222,875.5Z" transform="translate(-796.442 -875.498)" fill="#e37970"/>
        <rect id="Rectangle_138" data-name="Rectangle 138" width="1.694" height="0.254" transform="translate(2.908 3.215) rotate(180)" fill="#c45446"/>
      </g>
      <path id="Path_578" data-name="Path 578" d="M668.027,939.338a6.539,6.539,0,0,1,2.837-.1c.891.363,2.672,1.287,2.507,1.781s-2.276.759-3.167.264-1.551.132-2.639-.231S668.027,939.338,668.027,939.338Z" transform="translate(-649.675 -892.73)" fill="#e49963"/>
      <path id="Path_579" data-name="Path 579" d="M555.792,711.371s-7.18.1-8.466,3.56-.891,15.638.99,19.3,12.569,8.611,13.757,8.808,1.93-1.633,1.881-1.831-11.233-9.254-11.184-10.194S555.792,711.371,555.792,711.371Z" transform="translate(-544.924 -694.931)" fill="#ee9849"/>
    </g>
    <g id="Group_316" data-name="Group 316" transform="translate(306.619 298.412)">
      <path id="Path_580" data-name="Path 580" d="M986.313,800.089a31.078,31.078,0,0,0-2.229-2.485,6.775,6.775,0,0,0-2.226-.63c-.1.093-.1.227.111.417s1.034.668.917.721-2.589-1.177-2.945-.763.2,2.122,1.154,2.941,3.8,1.168,3.974,1.283C986.586,802.542,986.313,800.089,986.313,800.089Z" transform="translate(-968.034 -769.607)" fill="#ed975d"/>
      <path id="Path_581" data-name="Path 581" d="M1090.711,1169.428a.865.865,0,0,1-.512.8l-.005,0a6.134,6.134,0,0,1-2.775.3c-.145-.006-.276-.01-.393-.01h-.161c-1.125.027-1.006.353-3.142.53-2.436.2-3.334-.521-3.477-.85-.121-.279.924-.6,2.092-.957l.17-.053.467-.147c1.39-.448,2.759-.979,3.1-2.342.362-1.446-.726-5.481-.726-5.481l3.86-.4s.372,4.218.614,5.533a14.2,14.2,0,0,0,.651,1.861q.021.063.038.127A4.011,4.011,0,0,1,1090.711,1169.428Z" transform="translate(-1055.242 -1085.646)" fill="#e49963"/>
      <path id="Path_582" data-name="Path 582" d="M1090.711,1218.294a.865.865,0,0,1-.512.8l-.005,0a7.1,7.1,0,0,1-2.773.294c-.145,0-.276,0-.395,0h-.161c-1.125.027-1.006.353-3.142.53-2.436.2-3.334-.521-3.477-.849-.121-.279.924-.6,2.092-.957a7.439,7.439,0,0,0,3.737.309c1.625-.3,3.24-1.079,4.4-1.341q.021.064.038.127A4.012,4.012,0,0,1,1090.711,1218.294Z" transform="translate(-1055.242 -1134.511)" fill="#c65447"/>
      <path id="Path_583" data-name="Path 583" d="M900.474,1141.477c-.214,1.072-1.742.893-3.45.476s-1.3.079-3.731-.19-3.166-1.175-3.24-1.536c-.066-.321,1.134-.434,2.422-.582.162-.018.325-.038.487-.058,1.454-.182,2.519-1.121,3.839-1.891,1.251-.73,3.118-3.7,3.118-3.7l3.332.264s-1.748,2.656-2.425,3.81a4.027,4.027,0,0,0-.327,2.271A4.276,4.276,0,0,1,900.474,1141.477Z" transform="translate(-890.051 -1062.343)" fill="#e49963"/>
      <path id="Path_584" data-name="Path 584" d="M897.025,1179.31c-1.707-.417-1.3.079-3.731-.19s-3.166-1.175-3.24-1.536c-.066-.321,1.134-.434,2.422-.582l.012.025a6.851,6.851,0,0,0,3.479,1.082c1.648.04,3.394-.432,4.533-.414a4.275,4.275,0,0,1-.026,1.14C900.26,1179.906,898.732,1179.727,897.025,1179.31Z" transform="translate(-890.051 -1099.701)" fill="#c65447"/>
      <path id="Path_585" data-name="Path 585" d="M1066.521,993.525l7.181,19.326a6.577,6.577,0,0,0,2.161-.2,9.311,9.311,0,0,0,2.089-1.017s-1.782-18.556-5.047-22.416S1066.521,993.525,1066.521,993.525Z" transform="translate(-1043.328 -935.698)" fill="#365da4"/>
      <path id="Path_586" data-name="Path 586" d="M994.123,931.667s-20.635-6.977-25.237-5.493-18.419,28.975-18.419,28.975a2.669,2.669,0,0,0,1.163.734,10.989,10.989,0,0,0,2.708.278s12.47-10.689,13.955-13.806,2.078-6.086,3.563-5.79,19.15,7.274,23.158,3.118a11.571,11.571,0,0,0,2.96-9.557Z" transform="translate(-942.527 -881.658)" fill="#466aa5"/>
      <path id="Path_587" data-name="Path 587" d="M1173.778,606.371a11.736,11.736,0,0,1-.878-4.043,12.407,12.407,0,0,0,1.444,4.469c4.292,2.818,12.517,12.225,12.354,14.008,0,0,2.9-4.914,2.947-4.943,0,0,5.344-6.8-.99-10.689-3.219-1.978-3.2-4.518-3.069-6.724s-.878-11.7-7.327-9.217a4.2,4.2,0,0,0-1.5-.391,1.265,1.265,0,0,1,.571.271,5,5,0,0,0-2.708.518C1172.26,590.973,1170.144,603.026,1173.778,606.371Z" transform="translate(-1134.792 -588.82)" fill="#b74b42"/>
      <path id="Path_588" data-name="Path 588" d="M1192.93,684.677a5.946,5.946,0,0,0,3.647.666,4.73,4.73,0,0,0,2.429-2.329c-.627-.125-.808-.987-.795-4.691l-.283.056-4.768.944s.109,1.5.112,2.914C1193.274,683.424,1193.2,684.55,1192.93,684.677Z" transform="translate(-1153.124 -666.56)" fill="#e49963"/>
      <path id="Path_589" data-name="Path 589" d="M1194.672,679.691s.109,1.5.112,2.914c2.668-.075,4.079-2.509,4.656-3.858Z" transform="translate(-1154.637 -666.928)" fill="#d68d5d"/>
      <path id="Path_590" data-name="Path 590" d="M1180.086,610.049a14.02,14.02,0,0,0,1.734-4.1c.24-1.349-.448-6.348-5.471-5.628a6.824,6.824,0,0,0-2.831,1.07c-1.091.737-2.665,2.327-.9,6.69l.457,1.474Z" transform="translate(-1134.791 -598.75)" fill="#b74b42"/>
      <path id="Path_591" data-name="Path 591" d="M1174,625.717s6.313.1,6.317-3.828.822-6.567-3.208-6.8-4.815,1.267-5.136,2.579S1172.354,625.589,1174,625.717Z" transform="translate(-1134.853 -611.616)" fill="#e49963"/>
      <path id="Path_592" data-name="Path 592" d="M1189.67,609.233s1.729,4.613,4.381,5.3,3.8-.029,3.8-.029a7.512,7.512,0,0,1-2.457-4.438S1190.974,607.037,1189.67,609.233Z" transform="translate(-1150.293 -605.856)" fill="#b74b42"/>
      <path id="Path_593" data-name="Path 593" d="M1171.8,612.393a5.574,5.574,0,0,0-1.605,2.031c-.315,1-.456,3.063-1.057,2.993,0,0-1.3-3.136.161-4.91C1170.855,610.626,1171.8,612.393,1171.8,612.393Z" transform="translate(-1131.999 -608.641)" fill="#b74b42"/>
      <path id="Path_594" data-name="Path 594" d="M1052.831,732.642c.622-2.611-1.5-7.677-3.707-11.872-2.006-3.8-4.089-6.886-4.276-6.775-5.291,3.14-5.769.529-5.769.529s-4.806.638-6.167,2.981c-1.882,3.239-3.932,12.96-5.946,12.817-.924-.066-10.228-3.563-10.228-3.563a4.077,4.077,0,0,0-1.253,3.233,97.15,97.15,0,0,0,8.478,5.039c2.055,1.038,3.911,1.765,4.784,1.559,1.77-.417,4.534-4.519,6.027-6.934l.01-.016c1.906,10.791-.686,13.248.626,14.386,1.386,1.2,3.365-.572,7.72,1.315,2.856,1.239,6.82,3.031,9.489,3.342,1.4.164,2.444-.079,2.784-1.025C1056.394,744.914,1051.643,737.619,1052.831,732.642Z" transform="translate(-998.967 -697.542)" fill="#699dee"/>
      <path id="Path_595" data-name="Path 595" d="M1182.888,675.869s-.117.5-1.36.422c0,0-1.044-.064-1.012-.613A3.357,3.357,0,0,1,1182.888,675.869Z" transform="translate(-1142.342 -664.151)" fill="#fff"/>
      <path id="Path_596" data-name="Path 596" d="M1236.724,824.625c-.341.945-1.385,1.189-2.784,1.024-1.847-.8-9.825-3.9-9.736-5.99.133-3.1,1.534-3.2.545-7.027-.795-3.073,6.577-8.787,7.753-10.029,2.211,4.195,2.272,4.393,1.65,7C1232.963,814.584,1237.714,821.878,1236.724,824.625Z" transform="translate(-1180.287 -774.507)" fill="#3b76ca"/>
      <path id="Path_597" data-name="Path 597" d="M1091.056,829.656c-1.494,2.415-4.258,6.517-6.027,6.934-.873.206-2.73-.521-4.784-1.559a12.425,12.425,0,0,0,4.372.239c1.534-.148,1.979-2.029,4.4-4.849C1090.592,828.592,1090.979,829.052,1091.056,829.656Z" transform="translate(-1055.248 -797.541)" fill="#3b76ca"/>
      <g id="Group_315" data-name="Group 315" transform="translate(35.945 37.15)">
        <path id="Path_598" data-name="Path 598" d="M1168.555,872.164a1.366,1.366,0,0,0-.848-.016v-.4a2.093,2.093,0,0,0-.017-.259h-4.116a2.141,2.141,0,0,0-.017.259v.808a2.072,2.072,0,0,0,3.631,1.368h0a3.249,3.249,0,0,0,1.287-.606C1168.782,872.957,1168.882,872.366,1168.555,872.164Zm-.217.747c-.1.269-.571.413-.8.469a2.05,2.05,0,0,0,.166-.683.607.607,0,0,1,.531-.279C1168.381,872.446,1168.47,872.571,1168.338,872.911Z" transform="translate(-1163.558 -871.492)" fill="#c45446"/>
        <path id="Path_599" data-name="Path 599" d="M1166.122,871.75v.808a2.081,2.081,0,0,0,2.074,2.075,1.893,1.893,0,0,0,.279-.02,2.081,2.081,0,0,1-1.8-2.055v-.808a2.029,2.029,0,0,1,.017-.26h-.558A1.986,1.986,0,0,0,1166.122,871.75Z" transform="translate(-1165.785 -871.49)" fill="#e37970"/>
        <rect id="Rectangle_139" data-name="Rectangle 139" width="1.694" height="0.254" transform="translate(1.227 2.961)" fill="#c45446"/>
      </g>
      <path id="Path_600" data-name="Path 600" d="M1189.461,872.866a3.8,3.8,0,0,0-2.6-.792c-1.262.247-1.88,1.113-1.831,1.509a2.251,2.251,0,0,0,1.682,1.608,18.22,18.22,0,0,0,3.711-.594Z" transform="translate(-1146.261 -834.815)" fill="#e49963"/>
      <path id="Path_601" data-name="Path 601" d="M1218.107,714.015s5.145.317,6.926,2.8c2.507,3.5,6.862,17.774,5.675,21.04,0,0-4.883.514-8.373.514-1.82,0-7.281-.58-7.281-.58a4.63,4.63,0,0,1,.148-2.631c.528-.858,9.105-2.243,9.5-2.639s-4.949-7.72-4.949-8.908S1218.107,714.015,1218.107,714.015Z" transform="translate(-1172.226 -697.561)" fill="#699dee"/>
    </g>
    <path id="Path_602" data-name="Path 602" d="M749.414,905.4H679.42a1.361,1.361,0,0,0-1.357,1.357v1.771a1.361,1.361,0,0,0,1.357,1.357h33.82v34.293c-5.951.238-11.017,2.28-13.084,5.056h28.429c-2.051-2.787-7.04-4.816-12.992-5.056V909.89h33.82a1.361,1.361,0,0,0,1.357-1.357v-1.771A1.362,1.362,0,0,0,749.414,905.4Z" transform="translate(-399.305 -565.386)" fill="#ff4d4d"/>
    <path id="Path_603" data-name="Path 603" d="M1686.085,947.381h-46.772a1.043,1.043,0,0,0-1.04,1.04v1.841a1.043,1.043,0,0,0,1.04,1.04h22.357v29.977c-5.193.206-9.55,1.969-11.356,4.4l24.771.024c-1.793-2.437-6.155-4.21-11.356-4.42V951.3h22.357a1.043,1.043,0,0,0,1.04-1.04v-1.841A1.043,1.043,0,0,0,1686.085,947.381Z" transform="translate(-1233.32 -601.846)" fill="#ff4d4d"/>
    <g id="Group_318" data-name="Group 318" transform="translate(218.339 316.051)">
      <path id="Path_604" data-name="Path 604" d="M249.3,739.5c-1.794.449-13.3.3-13,1.794s8.069,3.884,12.4,2.539c0,0-4.781,11.8-11.056,11.206s-8.216-4.481-12.1-4.781-6.722.746-4.779,1.792,8.516.344,11.652,3.009,5.677,4.312-.148,5.506a30.462,30.462,0,0,1-12.868-.383,55.757,55.757,0,0,1-.963-13.976c.049-.735.114-1.471.2-2.2a36.976,36.976,0,0,1,7.426-18.674,18.718,18.718,0,0,1,6.5-1.215s-7.321,12.4-4.929,12.1,10.606-12.85,10.606-12.85,12.1-2.239,14.043,4.931S251.1,739.055,249.3,739.5Z" transform="translate(-218.339 -723.036)" fill="#ff4d4d"/>
      <g id="Group_317" data-name="Group 317" transform="translate(0.103 7.515)">
        <path id="Path_605" data-name="Path 605" d="M247.407,780.215c-15.37,6.222-23.768,11.509-28.285,15.658.049-.735.114-1.471.2-2.2C229.365,786.171,246.515,780.506,247.407,780.215Z" transform="translate(-219.122 -780.215)" fill="#04ba8e"/>
      </g>
    </g>
    <g id="Group_320" data-name="Group 320" transform="translate(220.249 356.948)">
      <path id="Path_606" data-name="Path 606" d="M234.294,1039.4c-.519-1.636-1-3.327-1.427-5.061l.108-.116s5.16,1.862,6.385,3.377C239.36,1037.6,234.912,1038.7,234.294,1039.4Z" transform="translate(-232.867 -1034.219)" fill="#ff4d4d"/>
      <path id="Path_607" data-name="Path 607" d="M254.047,1076.8c-1.572,2.686-3.566,2.8-4.224,2.4-.53-.325-2.779-2.63-3.832-3.256q-.5-1.315-.967-2.7-.071-.208-.141-.42-.167-.5-.329-1c1.119.48,6.847-.66,6.847-.66S255.62,1074.113,254.047,1076.8Z" transform="translate(-243.017 -1066.301)" fill="#ff4d4d"/>
      <g id="Group_319" data-name="Group 319" transform="translate(1.865 6.518)">
        <path id="Path_608" data-name="Path 608" d="M253.907,1086.786a69.623,69.623,0,0,0-6.711-2.553q-.071-.208-.141-.42A62.385,62.385,0,0,1,253.907,1086.786Z" transform="translate(-247.055 -1083.813)" fill="#04ba8e"/>
      </g>
    </g>
    <g id="Group_321" data-name="Group 321" transform="translate(382.09 311.977)">
      <path id="Path_609" data-name="Path 609" d="M1729.544,1194.272s2.783,2.78,3.473,3.462,3.279.382,3.991,2.391h-7.056a7.8,7.8,0,0,0-4.466-1.214s-.518-1.922,0-2.665a5.657,5.657,0,0,0,.708-1.974Z" transform="translate(-1690.961 -1128.267)" fill="#a53934"/>
      <path id="Path_610" data-name="Path 610" d="M1727.008,1229.069l.356,1.214h2.492v-1.028A6.891,6.891,0,0,0,1727.008,1229.069Z" transform="translate(-1692.483 -1158.424)" fill="#a53934"/>
      <path id="Path_611" data-name="Path 611" d="M1725.223,1037.945s-.13,13.187.938,20.545h3.35l2.363-13.894Z" transform="translate(-1690.928 -992.485)" fill="#233862"/>
      <path id="Path_612" data-name="Path 612" d="M1554.168,1015.99h-3.35l0,0c-.16-.166-10.428-10.81-12.031-17.5a17.747,17.747,0,0,0-2.114-.036c-.336.015-.689.042-1.041.085-1.553.194-21.91.939-22.979-.129s-.64-7.218-.64-7.218l2-1.06,2.115-1.12s23.477.369,25.924,2.214S1550.235,1005.356,1554.168,1015.99Z" transform="translate(-1505.669 -949.984)" fill="#365da4"/>
      <path id="Path_613" data-name="Path 613" d="M1805,1194.272s2.783,2.789,3.473,3.473,3.279.382,3.991,2.4h-7.055a7.78,7.78,0,0,0-4.466-1.217s-.518-1.928,0-2.674a5.686,5.686,0,0,0,.708-1.98Z" transform="translate(-1756.497 -1128.267)" fill="#b64c41"/>
      <path id="Path_614" data-name="Path 614" d="M1802.46,1229.069l.356,1.214h2.492v-1.028A6.891,6.891,0,0,0,1802.46,1229.069Z" transform="translate(-1758.018 -1158.424)" fill="#b64c41"/>
      <path id="Path_615" data-name="Path 615" d="M1536.671,1005.861c-.336.015-.689.042-1.041.085-1.553.194-21.91.939-22.979-.129s-.64-7.218-.64-7.218l2-1.06,3.363,1.427S1516.878,1005.313,1536.671,1005.861Z" transform="translate(-1505.669 -957.389)" fill="#2d427c"/>
      <path id="Path_616" data-name="Path 616" d="M1555.915,832.047a1.922,1.922,0,0,0-1.645-1.363,6.8,6.8,0,0,0-1.994.16,4.711,4.711,0,0,1-2.222-.24,60.6,60.6,0,0,1-6.278-2.509c-2.552-1.588-7.167-11.885-8.739-10.63a4.994,4.994,0,0,0-.916,5.212c1.115,3.3,5.523,7.833,8.2,8.565a56.619,56.619,0,0,0,7.827.866c.853.11,2.01.6,2.32.627.343.027,1.106-.481,1.634-.406C1556.027,832.6,1555.915,832.047,1555.915,832.047Z" transform="translate(-1524.655 -800.89)" fill="#ea8e50"/>
      <path id="Path_617" data-name="Path 617" d="M1507.652,784.059a46.148,46.148,0,0,1-6.442-.453,12.943,12.943,0,0,0,.931-4.836v-.009l.743.04,3.515.187-.011.141c-.033.474-.138,2.026-.12,2.9a3.739,3.739,0,0,0,.235,1.1C1506.886,783.455,1507.271,783.76,1507.652,784.059Z" transform="translate(-1496.36 -767.364)" fill="#ffb07b"/>
      <path id="Path_618" data-name="Path 618" d="M1469.354,693.89c-.052-.2-.7-2.362-4.066-1.736,0,0,1.688-.168,2.132.492a2.758,2.758,0,0,0-2.166-.156c-.848.489-1.03,2.205-.918,2.732s.993,2.108,1.6,2.124a1.8,1.8,0,0,0,.7-.154,8.121,8.121,0,0,0-.271.9c-.727,3.035,1.242,5.406,2.306,4.86.682-.35,1.161.841,1.161.841l5.775-7.258S1471.841,691.759,1469.354,693.89Z" transform="translate(-1464.307 -692.04)" fill="#2c3a64"/>
      <path id="Path_619" data-name="Path 619" d="M1512.263,781.813c-2.13-.253-3.49-2.123-4.127-3.259l-.023-.041.766.072,3.5.328C1512.35,779.388,1512.245,780.939,1512.263,781.813Z" transform="translate(-1502.356 -767.149)" fill="#ea8e50"/>
      <path id="Path_620" data-name="Path 620" d="M1509.543,735.281s-4.985-.046-4.908-3.15-.515-5.2,2.671-5.3,3.775,1.1,4,2.14S1510.842,735.213,1509.543,735.281Z" transform="translate(-1499.334 -722.252)" fill="#ffb07b"/>
      <path id="Path_621" data-name="Path 621" d="M1500.47,722.986c-.746-.953-1.333-.764-1.667-.491a3.484,3.484,0,0,0-4.5.6,5.932,5.932,0,0,1-2.03,3.453s.894.584,3,.1a3.557,3.557,0,0,0,1.726-1.126,11.618,11.618,0,0,1-2.063,2.392c2.531-1.091,3.625-4.544,3.734-4.909a3.908,3.908,0,0,1,1.049,1.476c.228.8.3,2.427.773,2.384C1500.5,726.864,1501.589,724.416,1500.47,722.986Z" transform="translate(-1488.601 -717.998)" fill="#2c3a64"/>
      <path id="Path_622" data-name="Path 622" d="M1571.855,862.857s3.2,4.142,3.932,4.206.388,2.821,0,3.531-2.882,2.228-4.475.595S1571.855,862.857,1571.855,862.857Z" transform="translate(-1556.736 -840.407)" fill="#a53934"/>
      <path id="Path_623" data-name="Path 623" d="M1493.777,825.986c-2.379.34-6.531.631-7.343,1.942s-5.983.388-6.407-.437.885-7.534.206-8.67a87.716,87.716,0,0,1-3.192-8.26,17.714,17.714,0,0,1-.552-1.818c-.161-.991-.772-4.553,1.681-5.6,0,0,1.189-.511,1.286-.931a2.3,2.3,0,0,0,.028-.429h0c0-.568-.011-1.346.543-1.123a5.54,5.54,0,0,0,2.724.938c1.236-.064,2.3-.615,2.465-.258s-.287.831,0,1.065,3.9,2.425,5.017,5.624a13.957,13.957,0,0,1,.907,4.242q0,.224-.006.454a28.168,28.168,0,0,0-.014,3.443c.006.057.012.113.02.17.181,1.347.378,2.621.58,3.605a5,5,0,0,0,.6,1.86C1493.291,822.782,1496.156,825.646,1493.777,825.986Z" transform="translate(-1474.726 -786.352)" fill="#b64c41"/>
      <path id="Path_624" data-name="Path 624" d="M1510.264,844.648a5.749,5.749,0,0,0-.4-.777,6.347,6.347,0,0,0-1.877-1.683,12.934,12.934,0,0,0-2.863.534s-9.351.123-10.843-.793c-1.942-1.194-6.659-6.135-9.941-8.657-1.565-1.2-2.8-1.854-3.262-1.29,0,0-1.25,1.2.324,4.163q.13.249.29.514c2.008,3.34,9.722,9.774,12.821,9.986s10.96-2.421,10.96-2.421a1.717,1.717,0,0,1,1.239.1c.421.324,2.046.263,2.277.485C1509.426,845.225,1510.369,844.972,1510.264,844.648Z" transform="translate(-1478.469 -813.413)" fill="#ffb07b"/>
      <path id="Path_625" data-name="Path 625" d="M1491.313,891.064c-.813,1.311-5.983.388-6.407-.437s.885-7.534.206-8.67a87.74,87.74,0,0,1-3.192-8.26.543.543,0,0,1,.667-.362c2.091.575,12,8.189,14.012,9.746a5,5,0,0,0,.6,1.86S1491.009,887.423,1491.313,891.064Z" transform="translate(-1479.605 -849.487)" fill="#a53934"/>
      <path id="Path_626" data-name="Path 626" d="M1518.375,860.873c-3.04-1.292-10.584-8.607-10.693-8.712.087.03,2.52-1.056,8.415,4.31a9.774,9.774,0,0,1,1.866,2.423A7.7,7.7,0,0,1,1518.375,860.873Z" transform="translate(-1501.981 -831.056)" fill="#a53934"/>
      <path id="Path_627" data-name="Path 627" d="M1479.637,831.479a6.945,6.945,0,0,1,2.945,1.349c1.456,1.133,8.731,8.239,9.948,8.537s3.838.157,3.806.924-.614,4.521-1.391,5.2-4.887,1-6.667-.13-10.616-11.781-10.065-14.079S1479.637,831.479,1479.637,831.479Z" transform="translate(-1476.364 -813.114)" fill="#b64c41"/>
      <path id="Path_628" data-name="Path 628" d="M1493.758,810.833a17.709,17.709,0,0,0-3.253,0s1.189-.511,1.286-.931a2.3,2.3,0,0,0,.028-.429c.125.511.506.752,1.525.8S1494.534,811.026,1493.758,810.833Z" transform="translate(-1487.062 -794.039)" fill="#a53934"/>
      <path id="Path_629" data-name="Path 629" d="M1728.319,1077.848l0,0c-.16-.166-10.428-10.81-12.031-17.5a3.966,3.966,0,0,1,4.043,1.3C1721.851,1063.663,1728.319,1077.848,1728.319,1077.848Z" transform="translate(-1683.17 -1011.843)" fill="#2d427c"/>
    </g>
    <g id="Group_324" data-name="Group 324" transform="translate(518.218 320.654)">
      <g id="Group_322" data-name="Group 322">
        <path id="Path_630" data-name="Path 630" d="M2631.841,773.93a1.952,1.952,0,0,0,.1-.563c.073-2.41.621-4.01-1.845-4.225s-2.974.69-3.194,1.489.094,4.862,1.1,4.97a6.942,6.942,0,0,0,.783-.022c.021.265.059.723.1,1.229.08.965.175,2.1.2,2.356l2.728-.134,1.441-1.795A7.953,7.953,0,0,1,2631.841,773.93Z" transform="translate(-2610.176 -767.657)" fill="#e49963"/>
        <path id="Path_631" data-name="Path 631" d="M2583.167,991.567a22.918,22.918,0,0,1-1.795,2.568c-1.975,2.493-4.125,4.549-4.5,6.491a8.766,8.766,0,0,1-.347,1.244c-.156.445-.35.913-.573,1.4a42.983,42.983,0,0,1-3.342,5.714c-2.163,3.205-4.2,5.879-4.2,5.879l-3.73-.159c.149-.374,1.776-4.8,3.952-10.207l2.73-6.783.361-.9c.277-.689.55-1.368.816-2.028l3.671-9.122s8.167-3.094,9.015-1.089C2585.93,986.228,2585.361,987.847,2583.167,991.567Z" transform="translate(-2556.196 -954.218)" fill="#163560"/>
        <path id="Path_632" data-name="Path 632" d="M2542.208,1208.6s-.191,3.078-.786,3.122c-.079.006-3.021.006-3.021.006l-3.754-.022a1.218,1.218,0,0,1,1.122-1.1,5.088,5.088,0,0,0,3.6-2.413C2540.067,1206.673,2542.208,1208.6,2542.208,1208.6Z" transform="translate(-2530.106 -1148.53)" fill="#163560"/>
        <path id="Path_633" data-name="Path 633" d="M2644.99,1147.411s2.594,1.667,2.343,2.209c-.033.072-1.467,2.64-1.467,2.64l-1.85,3.268a1.218,1.218,0,0,1-.41-1.514,5.089,5.089,0,0,0-.353-4.319C2642.263,1148.34,2644.99,1147.411,2644.99,1147.411Z" transform="translate(-2624.251 -1096.241)" fill="#163560"/>
        <path id="Path_634" data-name="Path 634" d="M2630.861,820.834a25.339,25.339,0,0,1,4.069-.742c.382.148.572.911.572.911l-5.913,1.017A2.908,2.908,0,0,1,2630.861,820.834Z" transform="translate(-2612.571 -811.925)" fill="#e58638"/>
        <path id="Path_635" data-name="Path 635" d="M2625.975,760.821s.956,2.667,1.489,2.4,1.022-.489,1.155.355-.4,2,1.378,1.689,3.1-5.454,2.4-6.178C2630.375,757,2623.2,758.354,2625.975,760.821Z" transform="translate(-2608.883 -758.059)" fill="#163560"/>
        <path id="Path_636" data-name="Path 636" d="M2624.74,847.676c-.976,1.153-9.28.853-11.712-.121a1.71,1.71,0,0,1-.428-.23c-1.43-1.144,1.8-2.15-1.812-10.872l0-.013c-2.269-6.457.718-8.331,1.766-9.284,0,0,5.07-1.541,7.836-.684C2623.977,827.586,2625.789,846.437,2624.74,847.676Z" transform="translate(-2595.514 -817.256)" fill="#ee9849"/>
        <path id="Path_637" data-name="Path 637" d="M2621.5,907.43c-.164,1.188-1.119,4.117-2.981,4.16a1.706,1.706,0,0,1-.428-.23c-1.431-1.144,1.8-2.15-1.812-10.872a.092.092,0,0,1,0-.013c.6-.415,1.581-.884,2.216-.166C2619.463,901.41,2621.667,906.2,2621.5,907.43Z" transform="translate(-2601.004 -881.29)" fill="#e58638"/>
        <path id="Path_638" data-name="Path 638" d="M2555.313,986.853s-10.109,6.294-11.253,10.585,13.637,13.446,13.637,13.446a7.53,7.53,0,0,0,1.907-2.479s-6.681-8-8.131-9.8c-.89-1.1,13.161-3.815,14.878-6.485a6.532,6.532,0,0,0,1.1-4.917Z" transform="translate(-2538.227 -956.784)" fill="#1c468a"/>
        <path id="Path_639" data-name="Path 639" d="M2503.7,943.809s-1.55-.664-2.058-.349a6.207,6.207,0,0,0-1.486,1.745c-.1.277-.143.679.347.593s.519-.083.519-.083a4.987,4.987,0,0,1,1.021-.663c.2-.01,1.032.376,1.432-.082A1.43,1.43,0,0,0,2503.7,943.809Z" transform="translate(-2500.095 -919.02)" fill="#e49963"/>
        <path id="Path_640" data-name="Path 640" d="M2535.718,834.88a6.8,6.8,0,0,0-2.581,3.433c-1.11,2.716-2.582,8.8-2.988,9.067s-6.494,1.225-8.307,1.93c0,0-.712,1.276-.039,1.8s8.827.237,9.322.109c4.116-1.066,6.279-9.188,6.77-10.436S2535.718,834.88,2535.718,834.88Z" transform="translate(-2518.699 -824.784)" fill="#ee9849"/>
      </g>
      <g id="Group_323" data-name="Group 323" transform="translate(14.832 38.177)">
        <path id="Path_641" data-name="Path 641" d="M2646.876,1078.438v-4.3h4.392a.312.312,0,0,0,.311-.311v-1.17a.312.312,0,0,0-.311-.311h-4.392v-13.858a.829.829,0,0,0-.827-.827h-.887a.83.83,0,0,0-.827.827v13.858h-4.391a.312.312,0,0,0-.311.311v1.17a.312.312,0,0,0,.311.311h4.391v4.3c-3.243.245-6.015,1.539-6.744,3.047h15.856C2652.718,1079.977,2650.12,1078.683,2646.876,1078.438Z" transform="translate(-2634.353 -1056.462)" fill="#163560"/>
        <rect id="Rectangle_140" data-name="Rectangle 140" width="22.507" height="5.722" rx="2.861" fill="#ee9849"/>
      </g>
    </g>
    <g id="Group_325" data-name="Group 325" transform="translate(308.545 334.09)">
      <path id="Path_642" data-name="Path 642" d="M909.9,866.75l-.055,1.256-.115,2.625-.053,1.209H906.35l-.076-1.209-.163-2.625-.078-1.256Z" transform="translate(-905.859 -865.902)" fill="#c45446"/>
      <path id="Path_643" data-name="Path 643" d="M908.815,860.3h-3.946l-.163.848h4.219Z" transform="translate(-904.706 -860.296)" fill="#dde3f2"/>
      <path id="Path_644" data-name="Path 644" d="M910.366,876.3l-.115,2.625h-3.459l-.163-2.625Z" transform="translate(-906.376 -874.2)" fill="#e37970"/>
    </g>
    <g id="Group_327" data-name="Group 327" transform="translate(314.808 330.771)">
      <path id="Path_645" data-name="Path 645" d="M956.3,868l-.023.516-.017.38-.105,2.418-.009.207-.052,1.209h-3.332l-.075-1.209-.013-.207-.151-2.418-.024-.38-.042-.686.009-.021a2.067,2.067,0,0,1,1.243.156c.466.3.975-.283,1.4-.114s.453.381.792.241A1.663,1.663,0,0,1,956.3,868Z" transform="translate(-952.444 -863.478)" fill="#e37970"/>
      <path id="Path_646" data-name="Path 646" d="M956.236,866.75l-.015.359-.023.516-.017.38-.105,2.418-.009.207-.052,1.209h-3.331l-.075-1.209-.013-.207-.151-2.418-.024-.38-.042-.686-.012-.19Z" transform="translate(-952.365 -862.583)" fill="#e37970" opacity="0.2"/>
      <path id="Path_647" data-name="Path 647" d="M956.351,853.54c0-.02,0-.039,0-.059a1.939,1.939,0,0,0-3.878,0c0,.02,0,.04,0,.059Z" transform="translate(-952.461 -849.374)" fill="#e37970" opacity="0.2"/>
      <g id="Group_326" data-name="Group 326" transform="translate(1.448)">
        <path id="Path_648" data-name="Path 648" d="M963.552,843.992l-.169-.021c.01-.106.553-7.279.637-7.757a.922.922,0,0,1,.625-.688l.009,0,2.713-.48.03.167-2.707.479a.75.75,0,0,0-.5.554C964.1,836.715,963.555,843.966,963.552,843.992Z" transform="translate(-963.383 -835.043)" fill="#c45446"/>
      </g>
      <path id="Path_649" data-name="Path 649" d="M956.557,873.413l-.017.38-.1,2.418h-3.481l-.151-2.418-.024-.38Z" transform="translate(-952.724 -868.37)" fill="#c45446"/>
    </g>
    <g id="Group_328" data-name="Group 328" transform="translate(302.439 336.827)">
      <path id="Path_650" data-name="Path 650" d="M862.22,882.6c.011-.032,0-.6.951-.8s.666-.68.666-.68,1.385.677,1.11,1.48S862.22,882.6,862.22,882.6Z" transform="translate(-861.698 -881.118)" fill="#dde3f2"/>
      <path id="Path_651" data-name="Path 651" d="M861.517,892.118h-2.793l-.478-2.021h3.687Z" transform="translate(-858.246 -888.918)" fill="#e37970"/>
    </g>
    <g id="Group_329" data-name="Group 329" transform="translate(426.882 339.598)">
      <path id="Path_652" data-name="Path 652" d="M1855.7,902.205h-3.946l-.163.848h.175l.078,1.256.164,2.625.076,1.209h3.331l.052-1.209.115-2.625.055-1.256h.175Z" transform="translate(-1845.484 -902.205)" fill="#ff4d4d"/>
      <path id="Path_653" data-name="Path 653" d="M1807.268,923.027s.285.476-.666.68a1.219,1.219,0,0,0-.851.5h-.623l.478,2.021h2.793l.417-2.021h-.408C1808.323,923.542,1807.268,923.027,1807.268,923.027Z" transform="translate(-1805.129 -920.29)" fill="#ff4d4d"/>
    </g>
    <path id="Path_654" data-name="Path 654" d="M1680.509,877.232a.306.306,0,0,0-.392.183l-3.059,8.409h-8.938a.306.306,0,1,0,0,.611h9.168a.306.306,0,0,0,.3-.271l3.106-8.54A.306.306,0,0,0,1680.509,877.232Z" transform="translate(-1258.979 -540.9)" fill="#a53934"/>
    <g id="Group_330" data-name="Group 330" transform="translate(598.019 351.742)">
      <path id="Path_655" data-name="Path 655" d="M3110.821,1008.472s-5.354-3-2.855-7.067c0,0,2-2.5,4.14-3.141,0,0-1.142,6.068,0,6.21s.785-6.853.785-6.853,5.639-2.713,7.852-2.5c0,0-3.5,5.925-2.356,5.782s5.068-6.139,5.068-6.139,5.782-1.071,6.71,2.355-.571,5.14-1.428,5.354-6.353.143-6.21.856,3.855,1.856,5.925,1.214c0,0-2.284,5.639-5.282,5.354s-3.926-2.141-5.782-2.284-3.212.357-2.285.857,4.069.164,5.568,1.438,2.713,2.06-.072,2.631-7.781.214-8.78-1.927Z" transform="translate(-3107.302 -994.608)" fill="#ff4d4d"/>
      <path id="Path_656" data-name="Path 656" d="M3132.126,1021.884s-14.991,4.854-16.7,10.279a11.383,11.383,0,0,1-1.427,5.211h0a10.055,10.055,0,0,0-1.4,4.806h.861a11.546,11.546,0,0,1,.587-3.855s0,0,0,0l.013-.031c.041-.092.1-.221.17-.378l0-.008c.175-.341.293-.594.367-.777h0l0-.005a8.945,8.945,0,0,1,1.815-2.818S3113.067,1029.593,3132.126,1021.884Z" transform="translate(-3111.903 -1018.299)" fill="#04ba8e"/>
    </g>
    <g id="Group_331" data-name="Group 331" transform="translate(581.336 359.73)">
      <path id="Path_657" data-name="Path 657" d="M2995.255,1065.9s4.062-2.275,2.166-5.361a8.065,8.065,0,0,0-3.141-2.383s.866,4.6,0,4.711-.6-5.2-.6-5.2-4.278-2.058-5.957-1.9c0,0,2.653,4.495,1.787,4.386s-3.845-4.657-3.845-4.657-4.386-.812-5.09,1.787.433,3.9,1.083,4.062,4.819.108,4.711.65-2.924,1.408-4.495.921c0,0,1.733,4.278,4.007,4.061s2.978-1.625,4.386-1.733,2.437.271,1.733.65-3.086.124-4.224,1.091-2.058,1.562.054,2,5.9.163,6.66-1.462Z" transform="translate(-2980.358 -1055.387)" fill="#ff4d4d"/>
      <path id="Path_658" data-name="Path 658" d="M3011.222,1089.252h.479a6.748,6.748,0,0,0-.653-1.423,8.638,8.638,0,0,1-1.083-3.953c-1.3-4.115-12.671-7.8-12.671-7.8,14.458,5.848,11.913,9.422,11.913,9.422a6.775,6.775,0,0,1,1.376,2.136l0,.006a0,0,0,0,1,0,0c.058.141.15.337.285.6a.012.012,0,0,0,0,.005c.051.111.093.2.122.271A5.091,5.091,0,0,1,3011.222,1089.252Z" transform="translate(-2995.068 -1073.359)" fill="#04ba8e"/>
    </g>
    <g id="Group_332" data-name="Group 332" transform="translate(589.722 374.658)">
      <path id="Path_659" data-name="Path 659" d="M3055.108,1177.73a8.75,8.75,0,0,0,8.75-8.75h-17.5A8.75,8.75,0,0,0,3055.108,1177.73Z" transform="translate(-3046.07 -1168.98)" fill="#ff4d4d"/>
      <path id="Path_660" data-name="Path 660" d="M3064.31,1177.662a8.756,8.756,0,0,1-9.837-8.683h2.174A8.751,8.751,0,0,0,3064.31,1177.662Z" transform="translate(-3053.118 -1168.979)" fill="#22ffca"/>
      <path id="Path_661" data-name="Path 661" d="M3062.844,1231.811H3045.1a1.08,1.08,0,0,1,1.08-1.079h15.582a1.08,1.08,0,0,1,1.08,1.079Z" transform="translate(-3044.979 -1222.616)" fill="#ff4d4d"/>
      <rect id="Rectangle_141" data-name="Rectangle 141" width="17.987" height="0.268" transform="translate(0 0)" fill="#04ba8e"/>
    </g>
  </g>
</svg>
