<svg xmlns="http://www.w3.org/2000/svg" width="39.313" height="14.563" viewBox="0 0 39.313 14.563">
  <path id="Path_663" data-name="Path 663" d="M900.059,670.091c-6.86-.178-12.985-3.265-17.589-9.335a4.715,4.715,0,0,1-1.211-2.949,2.121,2.121,0,0,1,3.172-2.028,5.9,5.9,0,0,1,2.314,1.954,17.59,17.59,0,0,0,27.81.663,9.547,9.547,0,0,1,2.176-2.271,2.317,2.317,0,0,1,3.625,2.823,13.3,13.3,0,0,1-3.546,4.7C912.355,667.956,906.995,670.073,900.059,670.091Z" transform="translate(-881.258 -655.528)" fill="#ff4d4d"/>
</svg>
