<svg xmlns="http://www.w3.org/2000/svg" width="23.024" height="20.484" viewBox="0 0 23.024 20.484">
  <path id="heart" d="M11.512,20.484a1.35,1.35,0,0,1-.89-.334C9.692,19.336,8.8,18.572,8,17.9l0,0a48.689,48.689,0,0,1-5.716-5.365A8.57,8.57,0,0,1,0,6.919,7.2,7.2,0,0,1,1.827,2,6.191,6.191,0,0,1,6.432,0,5.791,5.791,0,0,1,10.05,1.249a7.4,7.4,0,0,1,1.463,1.527,7.4,7.4,0,0,1,1.463-1.527A5.791,5.791,0,0,1,16.592,0,6.192,6.192,0,0,1,21.2,2a7.2,7.2,0,0,1,1.826,4.915,8.569,8.569,0,0,1-2.283,5.609,48.685,48.685,0,0,1-5.716,5.365c-.793.675-1.691,1.441-2.623,2.256a1.351,1.351,0,0,1-.89.334ZM6.432,1.349a4.857,4.857,0,0,0-3.614,1.57,5.854,5.854,0,0,0-1.469,4,7.21,7.21,0,0,0,1.973,4.749,47.914,47.914,0,0,0,5.553,5.2l0,0c.794.677,1.694,1.444,2.631,2.263.943-.821,1.844-1.589,2.64-2.267a47.926,47.926,0,0,0,5.552-5.2A7.211,7.211,0,0,0,21.676,6.92a5.854,5.854,0,0,0-1.469-4,4.857,4.857,0,0,0-3.614-1.57,4.473,4.473,0,0,0-2.793.967,6.545,6.545,0,0,0-1.556,1.8.851.851,0,0,1-1.463,0,6.539,6.539,0,0,0-1.556-1.8,4.473,4.473,0,0,0-2.792-.967Zm0,0" transform="translate(0 0)" fill="#f9f7f9"/>
</svg>
