<svg xmlns="http://www.w3.org/2000/svg" width="22.38" height="22.38" viewBox="0 0 22.38 22.38">
  <g id="user" transform="translate(0)">
    <g id="Group_401" data-name="Group 401" transform="translate(0)">
      <path id="Path_995" data-name="Path 995" d="M19.1,14.467A11.147,11.147,0,0,0,14.85,11.8a6.469,6.469,0,1,0-7.321,0A11.208,11.208,0,0,0,0,22.38H1.748a9.442,9.442,0,0,1,18.883,0H22.38A11.117,11.117,0,0,0,19.1,14.467ZM11.19,11.19a4.721,4.721,0,1,1,4.721-4.721A4.726,4.726,0,0,1,11.19,11.19Z" transform="translate(0)" fill="#f9f7f9"/>
    </g>
  </g>
</svg>
