<svg xmlns="http://www.w3.org/2000/svg" width="15.602" height="14.045" viewBox="0 0 15.602 14.045">
  <g id="shaikel" transform="translate(-17.876 -94.964)">
    <g id="Group_473" data-name="Group 473" transform="translate(17.876 94.964)">
      <path id="Path_1013" data-name="Path 1013" d="M294.31-422.937c-.095.041.065-.074,0,0-.124.124,0,.919,0,6.167v4.626h-1.542c-1.972,0-2.553.4-3.084,0-.2-.148.131.313,0,0l-1.542-1.542v-1.542c-.022-1.475.036-3.018,0-3.084-.124-.214.626,0,0,0-.742,0-1.425-.33-1.542,0a47.028,47.028,0,0,0,0,6.167,3.617,3.617,0,0,0,3.084,3.084c.648.148.1.017,3.084,0h4.625v-13.877h0c-.175-.231-.654.016-1.542,0A11.574,11.574,0,0,0,294.31-422.937Z" transform="translate(-281.792 423.036)" fill="gold"/>
      <path id="Path_1014" data-name="Path 1014" d="M10.06-418.1c-.414.19,0,.525,0,7.709v6.167H11.6c.9,0,1.35.157,1.542,0h0v-10.793H17.77c.31.173-.111-.181,0,0,.347.577,0,.447,0,3.084,0,1.607-.052,2.968,0,3.084.126.272.84,0,1.542,0,.813,0,1.446.428,1.542,0a52,52,0,0,0,0-6.167A4.156,4.156,0,0,0,17.77-418.1c-.517-.173.264.025-3.084,0C12.75-418.105,10.149-418.139,10.06-418.1Z" transform="translate(-9.877 418.197)" fill="gold"/>
    </g>
  </g>
</svg>
