<svg xmlns="http://www.w3.org/2000/svg" xmlns:xlink="http://www.w3.org/1999/xlink" width="54.971" height="54.971" viewBox="0 0 54.971 54.971">
  <defs>
    <filter id="Path_1015" x="0" y="0" width="54.971" height="54.971" filterUnits="userSpaceOnUse">
      <feOffset dy="3" input="SourceAlpha"/>
      <feGaussianBlur stdDeviation="3" result="blur"/>
      <feFlood flood-opacity="0.161"/>
      <feComposite operator="in" in2="blur"/>
      <feComposite in="SourceGraphic"/>
    </filter>
  </defs>
  <g id="Group_676" data-name="Group 676" transform="translate(-39.89 6)">
    <g transform="matrix(1, 0, 0, 1, 39.89, -6)" filter="url(#Path_1015)">
      <path id="Path_1015-2" data-name="Path 1015" d="M18.485,0A18.485,18.485,0,1,1,0,18.485,18.485,18.485,0,0,1,18.485,0Z" transform="translate(9 6)" fill="#ff4d4d"/>
    </g>
    <g id="plus" transform="translate(58.381 17.847)">
      <g id="Group_454" data-name="Group 454">
        <path id="Path_1009" data-name="Path 1009" d="M17.466,5.418H9.8c-3.676.033,2.553-.009-1.42,0H.71a.71.71,0,1,0,0,1.42H8.378c3.342.044-1.625,0,1.42,0h7.668a.71.71,0,0,0,0-1.42Z" transform="translate(0 -5.416)" fill="#303030"/>
      </g>
    </g>
  </g>
</svg>
